<svg xmlns="http://www.w3.org/2000/svg" xml:space="preserve" width="512" height="512"><path fill="#fbfbfc" d="M184.88 443.15c-1.065-.465-2.252-1.522-2.924-2.6-.573-.923-.576-.98-.654-11.053-.043-5.569.022-12.938.144-16.375.266-7.504.411-8.024 2.654-9.513 2.79-1.853 5.11-1.332 7.039 1.582.025.038.764-.272 1.643-.687 2.608-1.234 5.437-.969 8.841.83 5.354 2.827 7.972 9.674 6.034 15.778-1.095 3.449-3.477 6.237-6.587 7.71-1.57.744-1.876.8-4.315.796-2.097-.003-2.925-.116-4.116-.562-.82-.307-1.563-.558-1.651-.558-.088 0-.24 2.545-.34 5.657-.099 3.112-.291 5.952-.427 6.313-.36.955-1.447 2.026-2.59 2.556-1.178.545-1.734.57-2.75.126zm10.93-21.914c3.42-.95 4.586-5.404 2.039-7.786-1.3-1.214-3.39-1.58-4.819-.84-3.322 1.717-3.274 6.722.082 8.382 1.165.577 1.417.6 2.698.244zm56.308 13.369c-.543-.353-1.325-1.113-1.738-1.688l-.75-1.045v-10.125c0-5.569.092-10.659.203-11.31.248-1.451 1.072-2.478 2.77-3.452 1.832-1.05 3.197-1.012 4.868.138.7.48 1.346.875 1.435.875.09 0 .888-.358 1.775-.794 2.75-1.354 5.175-1.231 6.98.354 1.454 1.276 2.007 2.882 1.565 4.539-.704 2.64-3.222 3.974-6.47 3.424l-1.376-.232-2.875 2.818v6.887c0 8.007-.017 8.08-2.262 9.441-1.66 1.006-2.769 1.052-4.125.17zm-19.238-1.067c-.412-.252-1.128-.888-1.59-1.414l-.84-.957-1.58.78c-2.072 1.021-3.54 1.199-5.716.692-2.12-.494-3.779-1.374-5.154-2.733-1.282-1.267-1.845-2.336-2.242-4.26-.522-2.533.114-4.543 1.97-6.22 2.107-1.903 4.81-2.81 9.215-3.091 1.663-.106 2.562-.264 2.562-.45 0-.158-.453-.729-1.006-1.27l-1.007-.982-2.806.604c-5.028 1.08-5.673.986-6.678-.984-1.543-3.025.776-6.002 5.552-7.128 4.493-1.06 9.164.155 12.273 3.19 1.623 1.585 2.286 2.802 2.666 4.894.359 1.982.377 15.413.022 16.732-.302 1.121-1.269 2.125-2.57 2.668-1.223.51-2.152.49-3.07-.07zm-3.813-9.074c.241-.287.438-.721.438-.964 0-1.644-4.034-1.55-4.79.112-.253.553-.215.722.28 1.249.314.335.867.648 1.228.697.861.114 2.294-.436 2.845-1.094zm53.312 6.058c-1.285-.596-2.566-1.948-2.879-3.04-.15-.523-.243-7.274-.24-17.359.005-15.468.034-16.564.464-17.511.85-1.869 2.889-3.05 4.819-2.792 1.096.147 2.377 1.022 3.334 2.277l.638.836.318 16.704 2.537-2.758c1.396-1.517 3.094-3.134 3.773-3.595 1.08-.731 1.388-.822 2.438-.722 1.947.185 3.674 2.139 3.674 4.156 0 .802-.289 1.424-1.487 3.2-.818 1.212-2.165 2.98-2.993 3.927l-1.506 1.724.963 1.151c.53.633 1.72 2.052 2.645 3.152 2.205 2.62 2.784 3.865 2.4 5.15-.776 2.588-3.227 3.863-5.423 2.82-1.14-.54-4.019-3.234-5.65-5.287l-1.324-1.664-.19 3.208c-.252 4.283-.605 5.097-2.658 6.134-1.75.883-2.28.925-3.652.289zm-125.62-2.02c-5.634-.735-10.086-3.983-9.674-7.057.238-1.778 1.997-3.448 3.631-3.448.403 0 1.843.344 3.2.764 1.358.42 3.413.874 4.568 1.007 1.974.228 2.148.21 2.914-.315.972-.666 1.612-1.673 1.612-2.538 0-1.237-1.13-2.091-5.838-4.413-6.426-3.17-8.51-4.98-9.663-8.402-.763-2.262-.87-3.749-.399-5.585.881-3.44 3.122-6.105 6.573-7.818 2.695-1.339 5.208-1.688 8.86-1.232 4.644.58 8.17 2.305 9.363 4.582.194.372.353 1.296.353 2.054 0 1.19-.107 1.502-.787 2.275-.91 1.036-1.923 1.621-2.808 1.621-.341 0-1.973-.506-3.627-1.125-2.425-.907-3.321-1.125-4.623-1.125-1.391 0-1.728.094-2.42.676-1.037.874-1.56 2.092-1.248 2.913.336.885 1.417 1.62 5.68 3.861 4.528 2.383 6.25 3.495 7.43 4.801 2.337 2.587 3.248 6.635 2.255 10.016-1.875 6.382-7.53 9.509-15.351 8.488zm157.25-1.153c-1.199-.52-1.944-1.267-2.651-2.656l-.6-1.18.002-16.445c0-9.045.109-17.402.24-18.571.229-2.045.275-2.16 1.241-3.028 1.292-1.163 2.934-1.651 4.24-1.26 1.349.404 2.543 1.275 3.138 2.289.506.86.514 1.162.514 19.396v18.52l-.716 1.033c-.774 1.117-2.798 2.307-3.896 2.29-.35-.005-1.031-.18-1.511-.389zm26.248-.494c-2.588-.56-4.648-1.713-6.632-3.712-2.034-2.049-3.17-4.041-3.874-6.795-.623-2.439-.623-4.423.003-7.033 1.079-4.498 3.429-7.654 7.004-9.406 1.923-.942 4.63-1.65 6.338-1.658 2.635-.011 6.001 1.478 8.486 3.755 1.946 1.783 2.841 3.384 3.163 5.656.285 2.004.135 3.323-.526 4.644-.8 1.596-2.252 2.085-10.211 3.438-2.544.433-4.728.887-4.853 1.01-.135.132.183.632.783 1.233.88.88 1.167 1.016 2.228 1.055 2.144.08 2.915-.038 5.536-.844l2.57-.79 1.013.982c1.813 1.755 2.18 3.23 1.202 4.833-.994 1.63-2.895 2.767-5.918 3.54-2.191.56-4.025.587-6.311.092zm2.976-17.87c1.292-.255 2.452-.565 2.576-.69.386-.385-1.007-1.767-2.07-2.053-1.808-.487-4.159.672-5.116 2.523-.573 1.108-.033 1.134 4.61.22zm17.075-20.788c-.542-.541-.35-.989.387-.904.833.096 1.183 1.204.38 1.204-.257 0-.602-.135-.767-.3zm-137.26-1.314c-2.338-.566-2.314-.638 1.174-3.582.698-.589 1.631-1.601 2.073-2.25.443-.648.898-1.217 1.012-1.264.114-.046.376-.412.583-.812.413-.797.974-.951 1.212-.332.251.654.168 5.91-.11 6.91-.142.511-.503 1.102-.804 1.312-.671.47-3.234.48-5.14.018zm-92.885-1.64c-.731-.87-.62-1.432.417-2.112 1.246-.816 2.545.643 1.857 2.086-.47.986-1.456.998-2.274.026zm122.97-2.475c-.275-.093-1.1-.461-1.832-.82l-1.333-.65.833-.752c.457-.413 1.385-1.24 2.06-1.838.676-.597 1.78-1.928 2.455-2.957 1.699-2.591 2.025-2.768 2.429-1.316.529 1.905.115 5.231-.83 6.675-.738 1.125-2.745 2.005-3.782 1.657zm121.04-1.39-2.707-1.327.832-.765c.457-.42 1.465-1.335 2.238-2.033.808-.729 1.745-1.905 2.202-2.762.438-.822.918-1.494 1.067-1.494.375 0 .933.784.942 1.325.004.248.18.782.389 1.186.351.68.34.815-.136 1.749-.284.556-.63 1.653-.769 2.438-.358 2.023-.718 3.056-1.058 3.032-.161-.01-1.511-.618-3-1.348zm-76.23-7.159c-.638-.36-.536-1.108.233-1.713 1.36-1.07 2.166.088.902 1.294-.54.516-.796.61-1.135.42zm-185.81-3.605c-.963-.616-1.714-1.255-1.67-1.42.043-.164.324-.46.624-.658.3-.199 1.638-1.469 2.973-2.824l2.428-2.462.3 1c.235.785.233 1.145-.012 1.682-.171.376-.408 1.626-.527 2.778-.35 3.39-1.19 3.778-4.116 1.904zm282.74-8.533c-.544-.2-1.72-.625-2.613-.947-2.802-1.007-2.672-.894-1.711-1.487 1.474-.911 3.447-2.748 5.336-4.97.55-.646 1.184-1.177 1.409-1.178.704-.003 1.716 2.736 1.709 4.623-.007 1.827-1.19 3.623-2.755 4.182-.213.076-.832-.024-1.375-.223zm-29.923-1.834c-.196-.662-3.026-3.153-4.356-3.835-.435-.223-2.01-.751-3.5-1.174-3.987-1.132-6.62-2.005-7.397-2.452-1.431-.825-.662-1.692 2.688-3.032 1.1-.44 2.298-.923 2.662-1.073.493-.204 1.036-.191 2.125.05 1.329.296 1.634.501 3.338 2.238 2.815 2.87 4.857 6.73 4.7 8.88-.066.89-.1.941-.26.398zm-25.04-3.79c-1.223-.71-3.657-1.549-4.9-1.688l-1.375-.154 1.126-1.155c1.508-1.547 2.722-1.9 4.022-1.17.515.29 1.007.708 1.092.93.086.221.376.796.645 1.277.552.988.652 2.254.177 2.243-.171-.004-.525-.132-.786-.283zm-112.53-5.462c-1.3-.197-4.35-.954-4.689-1.163-.385-.238.795-1.483 2.524-2.664 1.422-.972 2.067-1.247 3.34-1.426 1.683-.236 1.625-.193 3.776-2.83l.95-1.165h4.257l1.235 1.063c1.517 1.304 2.846 3.088 2.474 3.318-.146.09-1.204.25-2.35.354-2.963.27-4.22 1.167-4.752 3.389-.31 1.294-.506 1.379-3.107 1.345-1.324-.017-2.97-.117-3.657-.22zm-97.806-.453c-.517-.269-.81-.61-.813-.948-.008-.703 1.993-2.536 3.777-3.463 1.312-.681 1.478-.71 2.438-.422.81.242 1.03.429 1.03.87 0 .99-3.995 4.438-5.1 4.4-.29-.01-.888-.206-1.332-.437zm150.41-10.858c-.494-.327-1.138-1.131-1.537-1.92-.588-1.16-.688-1.661-.688-3.46 0-2.342.707-6.206 1.658-9.057 2.324-6.975 7.467-13.362 14.343-17.814 4.07-2.635 7.585-4.05 12.902-5.193 3.083-.663 9.388-.931 12.098-.516 2.976.457 6.289 1.334 6.43 1.702.072.186-.319.981-.867 1.767-1.848 2.647-2.134 3.43-2.256 6.179-.062 1.375.011 3.158.162 3.963.34 1.825 1.94 5.221 4.103 8.715 1.894 3.06 2.765 4.693 2.594 4.864-.168.168-2.042-.819-3.74-1.97-1.923-1.302-5.195-2.843-7.047-3.317-2.055-.526-9.345-.764-12.462-.406-4.27.49-10.335 3.144-14.135 6.185-3.358 2.686-7.344 7.38-8.028 9.45-.466 1.414-2.076 1.791-3.53.828zm-136.72-1.344c0-1.476 1.165-6.715 1.968-8.853 2.077-5.53 2.876-7.088 5.18-10.1 1.225-1.602 2.54-3.386 2.921-3.964 2.005-3.035 7.121-7.025 13.983-10.905 3.835-2.168 6.396-3.202 9.165-3.7 2.905-.524 5.693-1.195 6.908-1.664 1.488-.574 5.361-.52 8.444.119 3.017.625 8.885 2.214 11.825 3.202 2.48.834 6.584 3.132 9.73 5.449 4.635 3.413 10.108 9.568 12.205 13.728l.646 1.28-2.55.13c-3.638.188-7.263 1.529-9.613 3.557l-1.063.916v2.23c0 2.197-.009 2.231-.609 2.231-.334 0-.925-.127-1.312-.282-1.06-.426-4.317-1.252-5.486-1.39-.567-.068-1.917.053-3 .27-1.083.217-2.587.423-3.343.46-1.332.065-1.377.046-1.454-.617-.1-.869 1.307-3.555 2.183-4.168.356-.249 1.228-.643 1.94-.876 1.96-.643 2.065-.91.934-2.394-.525-.689-1.61-1.711-2.41-2.273-1.831-1.284-5.954-3.233-8.568-4.05-3.939-1.231-4.616-1.305-12-1.305h-7l-2.916.81c-7.213 2.004-10.553 3.754-15.836 8.298-3.016 2.595-5.471 5.628-7.955 9.826-1.926 3.257-2.918 4.628-2.918 4.034zm-44.312-16.015c-.24-.063-.494-.387-.563-.72l-.24-1.172c-.14-.69.165-1.238.632-1.136.198.043.383-.165.432-.487.1-.657.074-.65.977-.265.958.408 1.825 1.209 1.822 1.684-.003.555-1.693 2.274-2.201 2.24a5.626 5.626 0 0 1-.86-.144zm155.48-7.015c-.062-.103-.348-.981-.636-1.951-1.223-4.126-4.256-6.815-8.376-7.426l-1.725-.256 1.807-.46c2.13-.54 4.197-1.661 5.772-3.13 1.044-.974 1.835-2.338 2.854-4.92.207-.526.478-.893.601-.817.123.076.483.788.798 1.58.77 1.938 2.068 3.879 3.327 4.978.886.774 3.308 2.071 5.036 2.698.39.141.112.306-1.25.744-4.106 1.321-5.534 2.767-7.241 7.335-.685 1.831-.763 1.964-.967 1.625zm95.458-3.57c-4.268-.458-7.924-.958-8.07-1.104-.25-.25.912-3.863 1.964-6.112.54-1.155 1.404-2.653 1.92-3.33 1.845-2.423 5.21-4.471 9.349-5.69 2.598-.765 2.686-.774 3.625-.368.529.229 1.752.559 2.718.733 1.859.336 5.097 1.582 6.08 2.34l.587.452-.806 1.856c-.444 1.02-1.352 3.129-2.02 4.686-.667 1.556-1.45 3.163-1.74 3.569-1.57 2.205-7.886 3.583-13.607 2.968zm-241.43-9.126c-1.192-.719-3.044-1.62-4.117-2.002-1.072-.383-2.038-.771-2.146-.864-.108-.092.455-.598 1.25-1.123 2.121-1.401 5.107-4.589 6.151-6.567.49-.927 1.12-1.826 1.4-1.997.46-.28.527-.243.667.375.086.377.43 1.725.768 2.995.95 3.587.863 4.763-.59 7.88l-1.217 2.61zm226.93-5.853c-.907-.368-1.21-1.323-1.031-3.248.145-1.567.297-1.952 1.419-3.606 1.477-2.177 3.372-4.038 5.116-5.024 3.608-2.039 3.761-2.33 2-3.801-.618-.517-1.125-1.045-1.125-1.172 0-.643 3.092-4.743 5.098-6.762 3.717-3.74 8.074-6.397 13.372-8.152 8.744-2.898 17.475-2.117 23.367 2.09 1.86 1.33 3.58 3.13 4.52 4.731.662 1.13.676 1.218.289 1.81-.224.34-.505.62-.625.62s-2.115 1.81-4.432 4.024-4.544 4.195-4.948 4.405c-.665.347-.956.34-3.125-.081-1.906-.37-3.557-.463-8.14-.46-6.388.004-8.73.305-12.75 1.64-5.487 1.823-7.693 3.529-10.626 8.22-2 3.198-3.079 4.362-4.38 4.723-1.148.319-3.263.341-4 .043zm-48.318-2.193c-1.297-.84-1.875-2.009-1.875-3.79 0-1.253.077-1.438.908-2.2 1.258-1.153 2.755-1.174 4.027-.057 1.725 1.514 1.713 3.811-.03 5.74-1.06 1.172-1.61 1.228-3.03.307zm119.07-2.128a31.666 31.666 0 0 0-2.35-1.09l-1.348-.556 2.023-1.92c1.514-1.437 2.263-2.387 2.974-3.772.523-1.019 1.039-1.853 1.146-1.854.305-.002.38.385.802 4.186.424 3.813.363 4.248-.714 5.12-.698.566-1.314.538-2.533-.114zm-74.145-6.511c-1.07-.72-1.982-2.064-1.975-2.906.01-.976 1.256-3.059 2.219-3.705 1.003-.674 2.415-.745 3.246-.163.825.578 2.03 2.568 2.03 3.354 0 .796-1.142 2.44-2.32 3.338-1.054.804-2.09.83-3.2.082zm-17.875-9.903c-1.235-.753-1.685-2.009-1.55-4.328.133-2.316.544-3.042 2.2-3.888 1.475-.754 2.01-.711 3.285.26 1.698 1.296 2.21 2.234 2.21 4.052 0 1.774-.56 2.85-1.98 3.807-1.082.729-3.054.774-4.165.097zm-223.7-1.091c-1.204-1.204-1.358-1.493-1.859-3.491-.3-1.198-.545-2.605-.545-3.125.003-1.513 1.42-6.519 2.463-8.697 1.07-2.232 3.476-5.56 5.047-6.98 1.423-1.286 5.443-3.895 6.002-3.895.252 0 1.786-.403 3.41-.895 1.851-.562 3.79-.963 5.2-1.076 2.518-.201 3.035-.05 4.734 1.39.54.457 1.073.831 1.183.831.11 0 1.063-.787 2.118-1.749 2.12-1.931 3.436-2.787 5.012-3.258.885-.264 1.31-.246 2.75.116 2.629.659 4.643 1.72 5.435 2.863.798 1.151 1.986 3.982 2.504 5.964.348 1.334.337 1.477-.247 3.15-1.04 2.977-.775 3.391 1.342 2.095 5.54-3.392 8.16-3.09 10.205 1.176 1.121 2.34 1.148 3.776.093 4.978-.895 1.02-2.839 1.908-4.312 1.972-.963.042-1.26-.106-3.02-1.504-1.073-.853-2.222-1.619-2.554-1.702-.374-.094-1.017.048-1.689.374-1.458.706-2.131.679-2.427-.098-.13-.342-.174-.785-.098-.983.223-.58-1.697-2.437-3.695-3.576-1.008-.574-2.901-1.413-4.207-1.866l-2.375-.822-5.375.012c-6.142.014-7.757.31-11.376 2.088-4.835 2.375-8.353 6.056-10.943 11.447-.994 2.068-1.056 2.327-1.055 4.385 0 1.203-.092 2.188-.204 2.188-.113 0-.795-.59-1.517-1.313zm326.25-5.706c-1.158-.91-.73-2.58.827-3.226.415-.172.928-.246 1.138-.165 1.123.43.912 3.218-.278 3.67-.856.326-.935.313-1.687-.279zm-162.73-2.378c-.21-.95-.459-2.122-.553-2.604-.967-4.97-4.536-13.15-7.451-17.084-5.755-7.76-12.918-12.199-22.923-14.2-2.132-.427-4.145-.915-4.474-1.084-.551-.284-.415-.353 1.75-.88 4.134-1.008 10.44-3.19 13.347-4.62 10.487-5.159 16.897-13.868 19.874-27.007.761-3.358.762-3.359 1.007-2.75.11.275.558 2.02.993 3.875 2.762 11.772 9.692 20.791 19.877 25.87 1.606.801 5.243 2.207 8.741 3.38 3.296 1.103 6.087 2.102 6.203 2.218.116.116-.74.334-1.902.484-7.857 1.014-16.12 4.694-21.134 9.41-5.306 4.993-9.56 12.621-11.533 20.683-.393 1.607-.793 3.463-.889 4.125-.29 2.013-.52 2.058-.934.183zm74.323-9.072c0-.847-.969-3.704-1.936-5.71-.557-1.157-1.31-2.217-2.095-2.951-1.2-1.122-3.433-2.363-4.261-2.368-.581-.003-1.208-.267-1.208-.508 0-.11.792-.504 1.76-.873 3.82-1.46 6.49-4.59 7.467-8.749.491-2.093.64-2.06 1.389.303 1.007 3.176 1.892 4.773 3.473 6.269 1.483 1.402 3.821 2.662 5.454 2.938.545.092.946.212.89.267-.054.054-.953.318-1.996.584-2.581.66-3.66 1.26-5.05 2.807-1.505 1.673-2.528 3.703-3.172 6.291-.541 2.175-.715 2.59-.715 1.7zm-151.75-1.408c-.137-.36-.253-.79-.256-.952-.004-.163-.334-1.064-.734-2.001-1.52-3.56-4.379-6.028-7.885-6.801-.718-.159-.683-.191.843-.768.876-.33 1.884-.602 2.24-.602.463 0 1.079-.444 2.182-1.574 1.692-1.734 2.432-3.287 2.74-5.746.098-.79.274-1.495.39-1.567.116-.072.391.52.612 1.316.919 3.316 1.232 4.153 1.894 5.067 1.203 1.662 3.606 3.056 5.843 3.392 1.515.227 1.628.527.33.876-1.574.424-3.174 1.302-4.495 2.467-1.532 1.352-2.954 4.246-2.954 6.014 0 1.4-.382 1.848-.75.88zm214.09-9.319c-.538-.18-.537-.181.125-.953.365-.425 1.395-1.197 2.288-1.715 3.476-2.014 5.773-4.34 7.643-7.743.511-.93 1.247-2.04 1.634-2.463.62-.68.725-.718.874-.328.245.637-.07 7.6-.394 8.695-.3 1.019-1.903 2.8-3.408 3.786-.9.59-1.249.648-4.599.77-1.993.072-3.867.05-4.163-.049zm-18.793-4.133c-.658-.7-.69-1.219-.106-1.72.754-.647 1.353-.742 1.848-.294.597.54.584.76-.098 1.763-.668.98-.922 1.02-1.644.25zm-289.42-1.669c-.219-.354.593-1.953 1.211-2.386 1.66-1.162 2.711.667 1.143 1.986-.773.65-2.064.87-2.354.4zm28.373-3.154c0-3.459 1.822-7.431 4.765-10.386 1.543-1.55 2.355-2.132 4.277-3.067 2.624-1.276 5.011-1.885 7.419-1.891 2.14-.006 6.247.86 8.47 1.785 1.77.737 2.2 1.222 1.453 1.64-.362.203-.962 2.285-2.253 7.82-.369 1.581-.83 3.124-1.025 3.427-.345.538-.38.542-1.417.15-.845-.32-2.376-.425-7.44-.508l-6.374-.104-3.825 1.267c-2.104.698-3.875 1.268-3.937 1.268-.062 0-.113-.63-.113-1.401zm-12.482-7.757c-.285-.363-.518-.746-.518-.853 0-.246 1.465-1.489 1.755-1.489.378 0 .995 1.088.995 1.756 0 1.338-1.36 1.695-2.232.586zm65.84-1.06c-1.054-.643-2.692-2.613-3.5-4.21-.665-1.314-.668-1.345-.256-2.424 1.398-3.659 4.447-5.949 7.385-5.546 2.142.294 4.673 2.04 5.534 3.817.444.918.514 1.446.44 3.323-.084 2.158-.115 2.261-.962 3.15-.48.506-1.55 1.243-2.375 1.639-1.267.608-1.81.719-3.5.718-1.511 0-2.187-.114-2.765-.467zm22.516-9.443c-1.075-.562-1.375-1.046-1.375-2.215 0-.823.154-1.178.766-1.764.634-.607.966-.73 1.918-.71.96.021 1.269.156 1.859.817 1.026 1.148.95 2.099-.264 3.313-1.063 1.063-1.703 1.186-2.904.559zm176.91-2.026c-.26-.516-.6-1.678-.755-2.583-.833-4.854.38-8.895 3.679-12.253 1.33-1.356 1.9-1.753 2.844-1.988.648-.162 1.31-.45 1.468-.641.376-.454 2.541-.455 3.427-.002 1.002.513 2.685.733 3.257.427.272-.145.84-.826 1.263-1.513 1.428-2.32 3.627-3.417 6.412-3.196 2.663.212 4.88 1.81 6.049 4.363.445.974.679 2.079.846 4.005.127 1.463.283 2.712.345 2.774.063.063 1.045-.51 2.183-1.271 2.434-1.63 3.826-2.252 4.547-2.036.813.243 2.356 1.838 3.243 3.351 1.063 1.815 1.993 4.155 1.785 4.491-.381.617-5.56 2.76-6.67 2.76-.285 0-1.241-.702-2.172-1.592-.915-.876-1.91-1.72-2.21-1.875-.735-.382-1.818-.343-2.578.091-1.06.606-1.51.488-1.342-.351.121-.608-.027-.914-.902-1.863-1.786-1.937-4.448-2.903-8.016-2.908-3.926-.005-7.57 1.42-10.398 4.066-1.986 1.857-2.728 2.91-4.348 6.17-.687 1.38-1.302 2.511-1.366 2.511-.065 0-.33-.421-.59-.937zm-141.29-5.563c-.013-1.743-.54-5.36-.877-6.01-.219-.424-.584-.74-.855-.74-.665 0-1.264-.259-1.264-.546 0-.422 3.6-4.506 5.843-6.63 8.18-7.744 21.29-11.858 33.97-10.66 1.542.145 1.687.207 1.687.728 0 .792 1.69 2.18 4.125 3.39l2 .993-1.25-.136c-11.417-1.245-17.934-.612-24.303 2.362-2.98 1.39-3.322 1.805-3.322 4.02v1.793l-1.12-1.032c-1.246-1.15-1.775-1.24-3.255-.562-2.71 1.243-2.981 2.583-1.23 6.07l1.145 2.28-1.207-.163c-3.906-.526-3.915-.525-5.568.356-1.688.9-3.18 2.417-3.995 4.062-.443.896-.52.959-.524.425zm-122.22-2.139c-1.016-.596-2.245-1.119-2.73-1.16-.487-.042-.927-.202-.977-.357-.05-.154.693-.863 1.652-1.574 2.126-1.576 4.11-3.683 5.267-5.592.864-1.426 1.202-1.704 1.357-1.115.046.172.276.896.512 1.61l.43 1.298-.784 2.303c-.903 2.65-1.541 3.987-2.14 4.484-.232.193-.493.538-.581.769-.138.361-.413.27-2.006-.666zm187.22-2.987c-.137-.36-.253-.79-.256-.952-.004-.163-.334-1.064-.734-2.001-1.52-3.56-4.379-6.028-7.885-6.802-.718-.158-.683-.19.843-.767.876-.33 1.884-.602 2.24-.602.463 0 1.079-.444 2.182-1.574 1.692-1.734 2.432-3.287 2.74-5.746.098-.79.274-1.495.39-1.567.116-.072.391.52.612 1.316.919 3.316 1.232 4.153 1.894 5.067 1.203 1.661 3.606 3.056 5.843 3.391 1.515.228 1.628.528.33.877-1.574.424-3.174 1.302-4.495 2.467-1.532 1.352-2.954 4.246-2.954 6.014 0 1.4-.382 1.848-.75.88zm-157.94-.185c-.447-.144-.813-.344-.813-.445 0-.101.729-.66 1.62-1.24 1.805-1.176 3.011-2.403 3.879-3.947.57-1.016 1.098-1.431 1.5-1.182.651.402.498 3.8-.284 6.313l-.253.812-2.419-.025c-1.33-.014-2.783-.143-3.23-.286zm-46.125-8.198c-.24-.146-.438-.557-.438-.913 0-.619.21-.876 1.407-1.72.428-.302.657-.318 1.174-.082.353.16.701.447.773.635.167.434-.19 1.392-.664 1.786-.53.44-1.748.599-2.252.294zm289.31-6.714c0-2.138 1.699-6.275 3.373-8.215 1.014-1.175 3.302-3.007 4.57-3.66 1.18-.607 5.165-1.394 7.057-1.393 1.982 0 4.496.51 6.266 1.272 1.277.55 1.298.575.636.752-1.297.347-1.402.59-1.402 3.24 0 2.37-.027 2.49-.741 3.304-.408.465-1.431 1.212-2.274 1.661-1.46.779-1.71.827-5.321 1.021-4.1.221-6.67.785-10.136 2.225-1.016.421-1.888.767-1.938.767-.05 0-.09-.439-.09-.974zm-173.25-12.653c-.137-.361-.253-.79-.256-.953-.004-.163-.334-1.063-.734-2-1.52-3.561-4.379-6.028-7.885-6.802-.718-.158-.683-.19.843-.767.876-.331 1.884-.602 2.24-.602.463 0 1.079-.444 2.182-1.575 1.692-1.733 2.432-3.286 2.74-5.745.098-.79.274-1.495.39-1.567.116-.072.391.52.612 1.316.919 3.315 1.232 4.153 1.894 5.066 1.203 1.662 3.606 3.057 5.843 3.392 1.515.227 1.628.527.33.877-1.574.424-3.174 1.302-4.495 2.467-1.532 1.351-2.954 4.246-2.954 6.014 0 1.4-.382 1.847-.75.879zm-73.807-.562c-.212-.24-.67-1-1.017-1.687-2.331-4.61-9.513-6.497-14.81-3.89-.921.454-2.075 1.332-2.96 2.254-1.149 1.196-1.616 1.516-2.241 1.533-.435.013-2.112.097-3.728.188-2.309.13-2.937.096-2.937-.156 0-.578 1.502-4.14 2.574-6.105.941-1.725 1.3-2.112 3.426-3.7 2.523-1.882 6.11-3.764 8.048-4.222 3.687-.87 9.598.51 13.01 3.037 1.437 1.065 2.192 2.379 2.192 3.814 0 .862.289.915.723.133.221-.398 1.443-1.871 2.715-3.272 1.889-2.08 2.312-2.691 2.312-3.335 0-1.44-2.436-4.422-4.562-5.584-.653-.357-1.187-.829-1.185-1.047.007-1.25 2.64-4.582 5.067-6.417 4.674-3.532 9.924-4.482 15.055-2.724 5.77 1.976 9.344 4.387 12.186 8.22 1.869 2.52 2.604 3.898 2.08 3.898-.203 0-2.228.948-4.5 2.106-3.874 1.975-4.275 2.123-6.448 2.386-5.083.614-10.11 2.494-13.567 5.072-.825.616-3.564 3.103-6.086 5.528-2.522 2.425-4.67 4.408-4.774 4.408-.103 0-.361-.197-.573-.437zm208.32-4.046c-.143-.266-.259-.986-.259-1.6 0-.943.184-1.361 1.185-2.692 1.72-2.289 10.026-10.704 10.74-10.884.848-.213 1.748.715 3.436 3.543.755 1.266 1.855 2.895 2.444 3.62.588.725 1.28 1.588 1.536 1.917l.465.6-.675-.123c-.795-.144-1.844-.912-4-2.928-.863-.808-1.8-1.47-2.082-1.47-.54 0-3.501 2.545-8.786 7.552-1.712 1.622-3.255 2.949-3.429 2.949-.174 0-.433-.218-.575-.484zm-41.433-11.287-.8-.512.55-.947c.302-.52 3.652-3.995 7.443-7.721l6.894-6.775 1.669 1.682c.917.925 1.668 1.802 1.668 1.949 0 .147.225.471.5.72.696.63.64.765-.508 1.224-.555.222-1.082.596-1.173.831-.09.235.137 1.269.503 2.296.691 1.934.739 2.6.098 1.36-.595-1.15-2.646-3.836-2.93-3.836-.143 0-1.44 1.122-2.883 2.494-4.623 4.397-8.824 7.758-9.688 7.752-.3-.002-.903-.235-1.343-.517zm-59.076-.605c-.137-.361-.253-.79-.256-.953-.004-.163-.334-1.063-.734-2-1.52-3.561-4.379-6.028-7.885-6.802-.718-.159-.683-.19.843-.767.876-.331 1.884-.602 2.24-.602.463 0 1.079-.444 2.182-1.575 1.692-1.733 2.432-3.286 2.74-5.745.098-.79.274-1.495.39-1.567.116-.072.391.52.612 1.316.919 3.315 1.232 4.153 1.894 5.066 1.203 1.662 3.606 3.057 5.843 3.392 1.515.227 1.628.527.33.877-1.574.424-3.174 1.302-4.495 2.467-1.532 1.351-2.954 4.246-2.954 6.014 0 1.4-.382 1.847-.75.879zm158.75-3.687c-1.473-2.1-3.808-4.51-5.382-5.554-1.605-1.065-4.56-2.254-6.489-2.61-.805-.15-1.5-.308-1.545-.353-.045-.046 1.317-.857 3.027-1.804 5.572-3.084 7.656-5.203 10.199-10.367 1.795-3.646 1.638-3.383 1.875-3.145.103.104.156 1.056.117 2.116-.107 2.955 1.317 6.975 3.256 9.187.852.972 3.792 3.243 5.044 3.895l.73.38-.605.366c-.333.201-1.546.92-2.697 1.596-2.572 1.513-3.744 2.806-5.105 5.636-.58 1.203-1.115 2.195-1.191 2.204-.076.009-.631-.688-1.234-1.547zm-116.16-.417c-1.767-1.077-2.052-2.48-.795-3.91 1.13-1.288 1.76-1.469 3.078-.886 1.198.53 1.625 1.119 1.625 2.24 0 .858-.954 2.12-2.017 2.67-.898.464-.95.46-1.891-.114zm-21.852-4.596c-1.235-.653-2.24-2.246-2.24-3.55 0-.437.259-1.285.575-1.884.653-1.235 2.246-2.24 3.55-2.24 1.304 0 2.896 1.005 3.55 2.24.727 1.377.727 2.393 0 3.77-.654 1.234-2.247 2.24-3.55 2.24-.438 0-1.286-.26-1.885-.576zm-138.93-11.916c-.862-.408-2.015-.862-2.563-1.01-.547-.147-.995-.354-.995-.46 0-.353.612-.95 2.202-2.15 1.59-1.199 3.381-3.218 3.674-4.14.29-.917 1.109-.596 1.66.65.41.928.477 1.444.35 2.688-.356 3.46-1.087 5.164-2.217 5.164-.299 0-1.25-.334-2.111-.742zm57.6-3.276c-.825-.65-.838-1.393-.053-2.943.84-1.656 2.306-3.463 5.359-6.6 2.008-2.065 2.688-2.624 2.938-2.416.415.344 2.598 4.368 2.598 4.789 0 .174-.315.455-.7.626-.385.171-2.437 1.828-4.562 3.684-2.339 2.043-4.072 3.376-4.392 3.377-.29 0-.825-.232-1.187-.517zm149.83-2.498c-.702-1.312-.269-2.832.991-3.475.839-.428 1.004-.441 1.462-.12.284.199.589.69.677 1.093.407 1.85-2.314 4.026-3.13 2.502zm29.528-2.696c-.884-.227-1.646-.534-1.694-.683-.113-.348 1.134-1.547 3.166-3.041 1.096-.807 2.102-1.872 3.126-3.314 1.952-2.747 3.077-3.961 3.226-3.483.061.197.308 1.156.548 2.132l.436 1.775-.838 1.225c-1.543 2.258-5.397 5.911-6.147 5.826-.12-.013-.94-.21-1.823-.437zm-63.661-11.015c-.403-.248-.952-.698-1.22-.999l-.486-.547 4.258-4.238c2.342-2.332 4.44-4.239 4.664-4.239.49 0 1.676 1.94 1.676 2.742 0 .352-.42.972-1.085 1.603-1.781 1.691-6.36 5.73-6.73 5.937-.201.112-.65.005-1.077-.259zm-145.36-3.39c-.344-.191-1.447-.426-2.45-.521-1.004-.095-1.963-.31-2.13-.477a2.088 2.088 0 0 0-.675-.43c-.203-.068.08-.206.63-.307.55-.1 1.394-.494 1.875-.875.481-.381 1.156-.841 1.5-1.023 1.04-.552 3.725-3.02 5.273-4.849 1.207-1.425 1.595-2.13 2.24-4.066.78-2.343 1.295-3.19 1.828-3.013.46.153.598 1.328.63 5.374.027 3.568-.01 3.899-.57 5-1.358 2.674-4.811 5.563-6.627 5.545-.495-.005-1.18-.166-1.524-.357zm190.089-2.163c-.18-.607-.416-1.527-.663-2.107-.876-3.17-2.934-5.602-5.868-7.084-.837-.422-1.59-.879-1.674-1.014-.15-.243.657-.83 2.865-2.084 1.662-.943 2.586-2.034 4.062-4.793.73-1.361 1.453-2.518 1.608-2.57.156-.052.42.334.587.856.502 1.57 1.994 4.257 2.992 5.388.516.585 1.627 1.45 2.47 1.922.842.473 1.531.989 1.531 1.146 0 .158-.59.528-1.388 1.214-3.109 1.94-5.21 5.213-6.522 9.126zm-78.062-8.781c-2.227-5.195-6.724-8.845-13.027-10.574-5.584-1.532-5.812-1.615-5.487-2.006.167-.201 1.103-.602 2.082-.89.98-.29 2.823-1.076 4.098-1.748 1.276-.672 2.537-1.221 2.804-1.221 1.062 0 3.4-1.117 4.51-2.156 1.639-1.533 2.346-3.005 3.23-6.72.424-1.787.945-3.852 1.157-4.588.373-1.297.4-1.325.866-.902.264.239.766 1.404 1.115 2.588 1.69 5.74 2.964 8.308 5.172 10.427 1.684 1.616 2.122 1.906 6.109 4.053 2.34 1.261 3.45 1.73 3.875 1.636 1.452-.322-.344.466-3.281 1.438-1.719.57-3.8 1.387-4.625 1.817-2.34 1.22-4.475 3.547-6.43 7.01l-1.68 2.975zm-54.5-3.145c-2.073-2.175-4.056-4.109-4.407-4.297l-.638-.341 1.69-1.703c.929-.937 1.798-1.703 1.93-1.703.33 0 9.398 9.04 9.396 9.366-.002.328-3.6 2.634-4.11 2.634-.05 0-1.789-1.78-3.861-3.956zm-30.527-6.335c-1.088-.305-1.565-.75-1.365-1.27.084-.219.923-.971 1.865-1.672 1.579-1.174 3.703-3.609 4.321-4.955.143-.31.35-.562.463-.562.113 0 .388-.359.615-.797l.412-.798.397.735c.535.99.438 6.333-.137 7.556-.607 1.29-2.155 2.059-4.093 2.031-.882-.012-1.997-.133-2.478-.268zm131.44-4.103c-.08-.078-.913-.22-1.854-.313l-1.711-.17 1.5-1.11c.825-.61 2.1-1.558 2.832-2.107 1.468-1.099 3.062-3.189 4.267-5.594.43-.86.875-1.562.988-1.562.113 0 .687 1.013 1.275 2.252.926 1.948 1.025 2.31.736 2.688-1.286 1.676-4.179 4.649-5.146 5.29-1.06.702-2.5 1.014-2.887.626z"/><path fill="#abd4fc" d="M326.66 371.64c-.532-.194-1.376-.68-1.875-1.082-1.936-1.558-2.5-3.205-2.02-5.894.54-3.022 1.942-4.476 5.37-5.564 1.455-.463 2.209-.572 3.114-.452l1.195.159.387-1.216c.213-.669.46-1.582.55-2.029.155-.778.21-.812 1.339-.812.791 0 1.87.294 3.292.898 3.235 1.372 3.092 1.367 2.923.103-.08-.593-.378-1.394-.663-1.78-.604-.816-.636-.971-.197-.971.177 0 .977-.673 1.778-1.495 2.023-2.077 3.93-2.907 8.002-3.484 1.521-.215 4.774.021 5.126.373.203.203-.415.53-2.602 1.382-3.332 1.296-4.125 2.185-2.688 3.012.777.448 3.41 1.32 7.396 2.452 3.309.94 3.842 1.206 5.974 2.982 2.062 1.718 2.283 2.284 2.143 5.491-.124 2.821-.504 3.734-2.438 5.85-2.263 2.476-.871 2.303-19.138 2.37-13.244.049-16.167-.002-16.968-.293zm-107.41-21.082c0-.273.169-.637.375-.808.512-.424.473-1.824-.07-2.494-.479-.59-1.998-.867-6.348-1.154-1.193-.079-2.34-.275-2.551-.435-.21-.16-.83-1.923-1.378-3.917s-1.52-4.854-2.162-6.356-1.31-3.285-1.486-3.961l-.32-1.23.658.13c1.271.254 4.415 1.105 5.11 1.385.388.155.979.282 1.313.282.6 0 .609-.034.609-2.23v-2.23l1.063-.917c2.352-2.03 5.974-3.369 9.62-3.556l2.557-.132.523 1.22c1.316 3.07 2.252 6.262 2.475 8.439.471 4.608.553 6.156.324 6.156-.126 0-.423.703-.659 1.563-.235.86-.93 2.6-1.542 3.866-1.01 2.088-1.255 2.4-2.607 3.318-.82.558-1.606 1.226-1.744 1.485-.27.505-2.217 1.685-3.177 1.926-.464.117-.583.045-.583-.35zm63.43-10.594c.305-.156.676-.652.825-1.102.684-2.074 4.668-6.765 8.028-9.453 3.8-3.04 9.865-5.694 14.135-6.185 3.117-.358 10.406-.12 12.462.406 1.852.474 5.124 2.015 7.047 3.318 1.698 1.15 3.572 2.137 3.74 1.969.171-.171-.7-1.804-2.594-4.864-2.164-3.494-3.762-6.89-4.103-8.715-.15-.805-.223-2.588-.162-3.963.122-2.73.49-3.73 2.297-6.25.492-.686.896-1.39.896-1.562 0-.427.025-.42 2.204.486 2.156.897 4.706 2.29 6.877 3.76.802.542 1.499.944 1.55.893.051-.051-.177-1.158-.508-2.46-1.175-4.632-1.684-8.892-1.21-10.127.145-.378.213-.361.597.149.345.456.737.597 1.902.681 3.212.232 4.342-.557 7.088-4.948 2.933-4.69 5.138-6.397 10.625-8.219 4.02-1.335 6.362-1.636 12.75-1.64 4.583-.003 6.235.09 8.14.46 2.174.42 2.46.428 3.134.079.409-.211 2.435-1.997 4.502-3.968 3.396-3.238 5.832-5.46 5.987-5.46.19 0 .899 2.25 1.271 4.035.313 1.5.436 3.257.436 6.216 0 3.86-.051 4.316-.802 7.099-.442 1.635-1.24 3.907-1.776 5.049-1.132 2.416-3.58 6.659-4.44 7.694-.327.395-.749 1.014-.936 1.375l-.34.658 4.662.004c4.018.003 4.938.08 6.668.553 5.913 1.62 10.672 4.804 14.696 9.833 3.897 4.871 6.149 11.544 5.857 17.36-.181 3.62-1.597 6.077-3.842 6.668-1.447.382-128.41.551-127.66.17zm76.096-28.738c2.341-.649 4.06-1.544 4.707-2.451.289-.407 1.072-2.013 1.74-3.57.667-1.556 1.576-3.665 2.02-4.686l.805-1.855-.586-.453c-.983-.757-4.222-2.004-6.08-2.34-.967-.174-2.19-.504-2.72-.732-.938-.406-1.026-.397-3.624.368-4.138 1.218-7.504 3.267-9.35 5.69-.515.677-1.378 2.175-1.919 3.33-1.052 2.249-2.213 5.862-1.963 6.112.145.145 3.801.646 8.069 1.104 2.781.299 6.799.065 8.9-.517zm-264.11-34.483c-1.077-.103-2.09-.318-2.25-.478-.174-.173-.29-1.115-.29-2.34 0-1.897.078-2.215 1.055-4.248 2.59-5.392 6.109-9.072 10.943-11.447 3.619-1.778 5.234-2.074 11.376-2.088l5.375-.012 2.375.822c1.306.452 3.2 1.292 4.207 1.866 1.998 1.138 3.918 2.996 3.695 3.576-.076.198-.032.64.099.983.295.777.968.804 2.426.098.673-.326 1.316-.468 1.69-.374.331.083 1.48.849 2.554 1.702 1.76 1.398 2.057 1.546 3.02 1.504 1.473-.064 3.416-.953 4.31-1.972 1.056-1.202 1.03-2.639-.092-4.978-2.044-4.267-4.664-4.568-10.205-1.176-2.117 1.296-2.382.882-1.342-2.096.584-1.672.596-1.815.247-3.15-.517-1.981-1.706-4.812-2.504-5.964-.792-1.142-2.806-2.204-5.434-2.863-1.441-.361-1.866-.379-2.75-.115-1.577.47-2.893 1.326-5.012 3.258-1.056.962-2.009 1.749-2.119 1.749s-.66-.393-1.222-.874c-.561-.481-1.265-.965-1.562-1.075-.39-.144-.717-.718-1.172-2.063-.523-1.546-1.313-4.676-1.33-5.268-.002-.085 1.8-.745 4.004-1.465l4.009-1.31 6.304.115c4.973.09 6.528.2 7.368.516 1.037.393 1.072.389 1.417-.15.195-.303.656-1.845 1.025-3.426 1.354-5.807 1.852-7.483 2.378-8.009l.525-.525 1.42 1.066c3.677 2.761 5.959 5.92 7.457 10.324.518 1.524.589 2.194.589 5.59 0 4.505-.31 6.04-1.768 8.76-.54 1.008-.982 1.863-.982 1.9 0 .038 1.062.139 2.36.224 6.11.401 11.861 4.18 14.536 9.552 1.052 2.111 1.701 5.345 1.498 7.456-.185 1.91-1.358 4.109-2.964 5.553l-1.234 1.11-31.035-.036c-17.07-.02-31.917-.119-32.995-.221zm254.83-54.471c-.542-.154-.622-.316-.605-1.209.047-2.36 2.309-4.904 5.092-5.725 2.048-.605 5.037-.358 6.917.57 2.24 1.107 2.313 1.159 2.622 1.904.159.384.384.757.5.829.115.071.773-1.006 1.463-2.393 1.626-3.27 2.366-4.32 4.353-6.18 2.829-2.646 6.472-4.07 10.398-4.065 3.568.005 6.23.97 8.016 2.908.875.95 1.023 1.255.902 1.862-.168.84.282.958 1.342.352.76-.435 1.843-.473 2.579-.092.3.156 1.294 1 2.21 1.875.93.891 1.887 1.592 2.172 1.592 1.11 0 6.288-2.142 6.67-2.76.207-.335-.723-2.675-1.786-4.49-.887-1.514-2.43-3.109-3.242-3.352-.722-.216-2.114.408-4.547 2.037-1.138.762-2.12 1.334-2.184 1.27-.062-.062-.217-1.31-.344-2.773-.168-1.926-.401-3.031-.847-4.005-1.169-2.553-3.386-4.152-6.049-4.363-2.819-.224-4.914.837-6.477 3.281-.944 1.476-1.481 1.778-2.723 1.533-1.882-.371-2.082-.555-2.673-2.457-.307-.988-.617-2.594-.69-3.57l-.13-1.774 2.245-.899c3.684-1.474 5.812-1.936 9.98-2.165 3.608-.199 3.862-.248 5.321-1.025.843-.45 1.866-1.197 2.274-1.661.715-.814.74-.932.74-3.322 0-2.276.046-2.508.556-2.866.92-.644 1.786-.466 3.355.692 3.198 2.36 5.666 6.098 6.354 9.624.433 2.222.173 5.524-.62 7.888-.354 1.055-.644 1.951-.644 1.992 0 .042.946.026 2.102-.035 6.335-.333 12.356 3.414 15.11 9.4.638 1.389.868 2.28.97 3.76.232 3.382-.848 5.705-3.403 7.326l-1.127.714-32.764-.025c-18.02-.014-33.045-.105-33.389-.203zm-245.69-32.019c-2.947-.631-5.343-2.998-6.185-6.11-.524-1.934-.41-6.306.174-6.676.182-.115 1.23-.217 2.33-.226 1.1-.009 2.732-.099 3.625-.2 1.57-.176 1.672-.231 2.978-1.616.828-.877 1.943-1.724 2.876-2.183 5.31-2.614 12.488-.733 14.822 3.883.662 1.31 1.272 2.125 1.59 2.125.104 0 2.252-1.984 4.774-4.408s5.26-4.912 6.086-5.528c3.457-2.578 8.484-4.457 13.567-5.072 2.173-.263 2.574-.411 6.448-2.386 2.272-1.158 4.299-2.106 4.504-2.106 1.256 0 2.835 8.008 2.483 12.594l-.17 2.22.959-.218c2.803-.636 5.91.191 7.72 2.055 1.09 1.12 2.256 3.59 2.586 5.472.153.879.25.993.789.928 3.124-.375 3.921-.344 5.189.201 1.582.68 3.174 2.354 3.543 3.725.35 1.302-.035 2.893-.8 3.303-.678.363-78.225.579-79.888.222zm23.362-19.773a3078.1 3078.1 0 0 0-.416-1.48c-.442-1.576-.59-6.451-.28-9.23.143-1.285.322-2.397.397-2.472.075-.076.614.123 1.197.442 2.212 1.208 4.684 4.211 4.684 5.69 0 .61-.459 1.268-2.312 3.309-1.272 1.4-2.506 2.896-2.742 3.322-.276.499-.464.648-.528.419z"/><path fill="#58cbfd" d="M338.91 386.84c-.844-.844-.848-1.827-.012-2.822.484-.574.857-.769 1.478-.769.968 0 2.125 1.157 2.125 2.125 0 .323-.291.933-.647 1.356-.848 1.007-2.004 1.05-2.944.11zm-141.66-.59c-.775-.776-.66-2.053.27-2.982.986-.986 1.685-.972 2.68.055.993 1.024 1.011 1.753.07 2.695-.897.896-2.251 1-3.02.231zm10.825-9.444c-.688-.54-1.138-1.707-.928-2.403.089-.29.435-.895.77-1.342.896-1.197 2.062-1.142 3.362.159 1.445 1.444 1.221 2.747-.62 3.621-1.097.52-1.89.51-2.584-.035zm188.34-7.982c-1.104-2.193-3.135-4.42-5.706-6.262-1.076-.77-1.957-1.582-1.957-1.804 0-.404 2.651-2.192 2.893-1.95.07.07-.345.407-.923.748l-1.05.62 1.228.45c.675.246 1.946.726 2.825 1.067 1.974.764 2.522.772 3.537.05 1.914-1.364 2.243-4.371.813-7.432-.438-.937-1.166-1.07-1.584-.29-.154.286-.326.474-.383.417-.162-.162 1.2-3.19 1.433-3.19.114 0 .816 1.21 1.56 2.688 1.654 3.283 2.435 4.055 6.282 6.215.757.425.6.87-.63 1.782-3.414 2.534-4.664 3.851-5.974 6.298-1.41 2.63-1.346 2.614-2.364.593zm-184.56-5.896c-.564-.58-1.546-1.746-2.182-2.59-2.372-3.151-4.888-4.738-8.633-5.445a80.454 80.454 0 0 0-2.179-.394c-.048 0-.493-1.322-.987-2.937-1.333-4.355-1.812-5.484-3.258-7.688-2.387-3.636-6.044-6.696-10.455-8.748-3.895-1.811-4.886-2.005-10.156-1.983-4.17.018-4.866.084-7.079.678-5.709 1.53-10.294 4.146-15.216 8.68-1.193 1.099-2.245 1.998-2.339 1.998-.093 0-.492-.272-.886-.603-.41-.345-1.444-.77-2.412-.992-.931-.213-2.013-.532-2.405-.709-.696-.314-.708-.353-.571-1.887.108-1.219.3-1.772.87-2.5.4-.514 1.537-2.316 2.524-4.006 2.946-5.044 6.637-8.985 11.718-12.511 3.385-2.35 6.143-3.548 11.755-5.107l2.915-.81h7c7.384 0 8.061.074 12 1.305 2.614.817 6.737 2.766 8.568 4.05.8.561 1.885 1.584 2.41 2.273 1.131 1.483 1.027 1.75-.934 2.393-.712.234-1.584.628-1.94.877-.876.613-2.282 3.299-2.182 4.168.075.652.136.681 1.329.629.687-.03 2.23-.241 3.43-.467 1.199-.227 2.346-.349 2.548-.27.203.077.448.569.546 1.091.097.523.73 2.244 1.405 3.824.676 1.58 1.676 4.506 2.224 6.5.547 1.995 1.167 3.758 1.377 3.919.21.16 1.359.356 2.551.434 4.35.288 5.87.564 6.349 1.155.542.67.581 2.07.07 2.494-.456.378-.498 1.25-.061 1.25.173 0 .842-.28 1.486-.624l1.172-.624 2.326.634c1.634.446 3.273.68 5.506.787 3.52.168 3.8.082 4.081-1.253.448-2.119 2.17-3.4 4.63-3.445 1.889-.035 2.416-.234 2.92-1.108l1.19-2.06c.412-.715.908-1.301 1.102-1.303.493-.005 2.437 2.168 3.028 3.384.816 1.682 1 3.248.566 4.841-.208.768-.526 2.07-.707 2.893-.242 1.106-.526 1.675-1.086 2.175-.897.802-2.915 1.452-4.511 1.454-.629.001-2.07.074-3.205.162-2.507.196-2.565.363-.869 2.469 1.343 1.666 2.6 2.618 3.459 2.618.318 0 .723.18.9.399.177.219.592.669.922 1l.599.601-30.198-.016zm15.551-18.815c.58-1.183 1.25-2.875 1.488-3.758.24-.883.53-1.606.648-1.606.117 0 .213-.2.213-.446 0-.521 2.385-1.524 5.052-2.123l1.677-.376.823.995c1.55 1.875 1.885 3.524.9 4.44-.464.433-.878.51-2.737.51h-2.19l-.95 1.165c-2.135 2.618-2.105 2.595-3.7 2.825-.825.119-1.675.286-1.889.371-.262.105-.045-.546.665-1.997zm-101.55-18.55c-1.49-3.729-2.821-5.37-5.26-6.487-.74-.338-1.28-.722-1.2-.851.081-.13.817-.575 1.636-.988 2.19-1.106 3.36-2.287 4.396-4.441l.904-1.882.489.603c.268.332.764 1.149 1.102 1.815.863 1.703 2.28 3.154 4.06 4.155.838.47 1.523.92 1.523.999 0 .078-.534.387-1.187.687-2.059.945-3.153 2.105-4.55 4.826-.707 1.376-1.342 2.5-1.411 2.5-.07 0-.296-.421-.502-.937zm-26.495.195c-.286-.116-.838-.587-1.225-1.047-2.117-2.51-1.708-5.265 1.017-6.862.843-.494 1.312-.616 1.928-.5 1.74.326 3.675 2.679 3.675 4.467 0 1.067-1.225 3.024-2.307 3.683-.844.515-2.178.627-3.088.259zm1.752-4.196c.49-.515.89-1.115.891-1.331.003-.475-.864-1.276-1.822-1.684-.903-.384-.876-.391-.977.265-.049.322-.234.53-.432.487-.467-.102-.771.446-.631 1.136.063.31.17.838.24 1.171.119.578.484.8 1.421.865.232.016.822-.393 1.31-.909zm320.47-12.919c-1.003-.448-2.08-2.052-2.255-3.358-.17-1.27.644-3.05 1.761-3.846 1.046-.747 3.003-.778 3.965-.064.92.681 1.951 2.63 1.951 3.683 0 2.317-3.332 4.52-5.421 3.585zm-288.02-10.277c-.662-.468-1.559-2.119-1.559-2.87 0-1.284 1.527-2.997 2.671-2.997 1.355 0 3.076 1.58 3.078 2.825.002.737-.693 1.857-1.561 2.518-1.115.848-1.938 1.012-2.629.524zm269.14-35.805c-.206-.24-.904-1.445-1.551-2.677-1.506-2.867-3.684-5.891-5.276-7.327-.688-.62-2.377-1.884-3.754-2.809-1.377-.925-2.668-1.88-2.87-2.122-.33-.399-.283-.51.495-1.16 1.043-.87 1.558-.949.778-.118l-.564.6 1.046.177c.576.097 2.503.096 4.284-.003l3.237-.18 1.446-1.087c2.01-1.51 2.707-2.607 3.015-4.734.316-2.189.34-7.295.034-7.483-.126-.078-.46.168-.742.547-.704.943-.668.342.042-.711 1.109-1.645 1.426-1.322 3.887 3.96 1.493 3.206 4.216 5.718 8.728 8.053 1.135.587 2.063 1.175 2.063 1.306 0 .605-.692 1.314-3.371 3.453-3.48 2.778-5.394 4.848-7.004 7.577-1.923 3.26-3.17 5.176-3.366 5.176-.1 0-.35-.197-.557-.438zm21.133-28.29c-1.412-.872-1.391-1.983.06-3.257 1.109-.973 1.565-.963 2.556.059.978 1.01 1.003 1.583.111 2.614-.891 1.031-1.718 1.208-2.728.584zm-336.54-10.67c-1.264-.885-1.661-2.82-.804-3.91 1.586-2.016 4.259-1.095 4.259 1.467 0 1.386-.18 1.793-.968 2.19-1.157.582-1.909.658-2.487.253zm210.8-47.613c-4.282-4.337-8.022-8.274-8.312-8.75-.617-1.012-.666-1.755-.175-2.69.412-.784 2.396-2.772 2.396-2.4 0 .137-.121.371-.269.519-.323.323 1.165 1.331 1.967 1.331.837 0 5.115-3.435 9.659-7.756 1.442-1.371 2.74-2.494 2.883-2.494.283 0 2.334 2.686 2.929 3.836.641 1.24.594.574-.097-1.36-.367-1.027-.593-2.06-.503-2.295.09-.236.618-.61 1.172-.832.555-.222 1.009-.468 1.009-.547 0-.08-.244-.405-.543-.722-.298-.318-.475-.645-.393-.727.188-.188 11.436 10.944 11.436 11.318 0 .151-.432.448-.96.659-1.365.546-3.954 2.564-7.95 6.196-1.906 1.734-4.048 3.646-4.76 4.25l-1.293 1.1-.033 3.75c-.018 2.062-.111 4.143-.206 4.624l-.173.875zm6.452 3.096c.533-.482.618-2.037.144-2.633-.172-.215-.706-.45-1.187-.522-1.097-.164-4.17-2.039-6.063-3.7-.79-.693-1.437-1.21-1.437-1.15 0 .062.168.434.373.828.454.87.485 1.591.07 1.591-.17 0 .64.953 1.8 2.118 1.158 1.164 2.157 2.065 2.22 2.002.064-.064.579.264 1.145.728.913.748 1.467 1.025 2.247 1.123.127.016.436-.157.687-.385zm105.24-1.557c-.716-.715-.7-2.06.033-2.877.854-.95 1.898-.964 2.824-.038 1.251 1.251.542 3.06-1.297 3.306-.833.112-1.133.037-1.56-.39zm-34.651-51.32c-.742-.584-1.379-1.852-1.379-2.747 0-1.627 1.86-3.712 3.31-3.712.862 0 2.605 1.918 2.83 3.113.514 2.744-2.676 4.985-4.762 3.345zm-136.81-1.813c-.396-.332-1.032-1.18-1.414-1.882l-.696-1.278.619-1.056c1.578-2.692 3.27-2.93 5.2-.732.695.79.764 1.011.659 2.105-.126 1.309-.919 2.405-2.239 3.095-.935.488-1.301.445-2.13-.252zm-25.07-5.462c0-.773-.412-1.262-4.364-5.186-2.4-2.383-4.31-4.419-4.245-4.524.064-.104.73-.5 1.48-.88s1.63-.937 1.955-1.24l.592-.549 8.831 8.791-.024 1.14c-.014.627-.105 1.42-.203 1.764l-.178.625-.306-.562c-.383-.704-1.384-.742-1.854-.072-.189.27-.645.728-1.014 1.018l-.67.528zm-37.874-12.121c-1.38-2.648-3.202-4.788-5.42-6.368-2.695-1.92-2.627-1.84-2.087-2.438.56-.618.836-.646.79-.08-.053.658 1.256 1.15 3.39 1.274 1.732.101 2.035.048 3.03-.535 1.574-.923 1.864-1.708 1.952-5.29.058-2.37-.009-3.155-.323-3.735l-.397-.735-.424.82c-.233.452-.48.765-.548.697-.13-.129.839-2.172 1.029-2.172.06 0 .334.51.61 1.133.8 1.808 3.144 5.245 4.058 5.95l2.143 1.657c.848.656 1.256 1.137 1.165 1.375-.078.201-1.254 1.276-2.614 2.389-2.532 2.07-3.817 3.768-4.866 6.433-.23.585-.491 1.062-.58 1.062-.087 0-.497-.647-.909-1.437z"/><path fill="#fdd547" d="M254.47 388.99c-1.182-1.82-1.799-2.469-3.813-4.006-1.386-1.059-2.402-2.015-2.402-2.262 0-.236.438-.775.973-1.2.934-.739 1.68-1.072 1.097-.49-.384.384 2.511 1.824 3.605 1.793.948-.027 2.438-.882 2.981-1.71.95-1.451 1.36-4.771.825-6.696-.193-.697-.368-.918-.644-.812-.227.087-.34.026-.28-.152.24-.719.639-.312 1.664 1.695 1.296 2.537 3.125 4.601 5.535 6.248 1.768 1.208 1.983 1.514 1.444 2.054-.434.433-.819.37-.45-.075.271-.327.112-.375-1.228-.375-2.01 0-3.395.707-5.511 2.815l-1.614 1.608-.011 1.66c-.006.913-.11 1.652-.233 1.642-.122-.01-.29.084-.375.208-.084.125-.787-.75-1.563-1.945zm122.19-1.691c-1.174-1.932-2.573-3.491-4.536-5.053-.89-.708-1.618-1.433-1.618-1.612 0-.179.278-.507.616-.729.717-.469 1.115-.534.694-.113-.22.22.378.612 2.478 1.625 1.523.734 2.86 1.335 2.97 1.335.258 0 .644-1.219.969-3.052.139-.785.485-1.883.769-2.44.476-.933.487-1.068.135-1.747-.21-.405-.376-.883-.37-1.061.006-.18.244.125.528.675.696 1.345 1.477 2.155 3.774 3.914 1.065.816 1.937 1.564 1.937 1.664 0 .1-1.01 1.113-2.246 2.252-1.235 1.139-2.83 2.909-3.546 3.933s-1.383 1.862-1.486 1.862-.583-.654-1.068-1.453zm-229.43-9.518c-.534-.534-.97-1.18-.97-1.437.003-1.35 2.089-3.086 3.261-2.714.881.28 1.488 1.355 1.488 2.633 0 1.027-.108 1.285-.769 1.841-1.087.915-1.854.833-3.01-.323zm-26.921-5.265c.424-.679-.311-1.447-1.725-1.803-.595-.15-1.144-.371-1.218-.492-.216-.349-.606-.254-.606.146s-.95 1.385-1.336 1.385c-.133 0-.05-.212.184-.471.28-.31.5-1.189.643-2.566.119-1.153.356-2.403.527-2.779.248-.545.248-.893 0-1.723l-.312-1.04-.594.727c-.677.828-.815.643-.209-.282.6-.915.97-.759 1.56.657.81 1.951 2.14 3.58 4.067 4.981.963.701 1.716 1.368 1.673 1.483-.089.237-2.617 2.263-2.823 2.263-.074 0 .002-.219.169-.486zm-10.924-1.37-.75-.603.734-.77c.678-.712 1.355-1.07 1.031-.546-.077.124.214.45.645.723l.785.497-.808.177c-.633.14-.78.28-.683.653.164.626-.048.597-.954-.131zm266.01-16.92c-.976-.857-1.11-1.562-.514-2.714.943-1.824 2.867-2.317 3.962-1.016 1.647 1.957.803 4.506-1.492 4.506-.843 0-1.261-.166-1.956-.776zm-264.22-42.787c-.193-.31-.81-1.362-1.37-2.339-1.45-2.523-4.048-5.196-6.759-6.953-1.255-.814-2.282-1.627-2.282-1.806 0-.355 4.46-3.462 4.67-3.253.07.07-.674.661-1.654 1.313-.98.651-1.694 1.26-1.587 1.352.108.092 1.073.48 2.146.863 1.072.383 2.925 1.284 4.116 2.002l2.167 1.307 1.216-2.609c1.453-3.118 1.541-4.293.59-7.881a134.63 134.63 0 0 1-.773-3.018c-.134-.587-.225-.657-.526-.407-.484.401-.465-.004.032-.715.555-.792.81-.515 2.573 2.796 1.618 3.039 3.026 4.824 4.475 5.676 2.085 1.225 4.055 2.622 4.055 2.875 0 .148-.732.796-1.627 1.44-1.593 1.145-2.035 1.384-1.77.956.072-.117-.003-.567-.166-1-.236-.625-.4-.754-.804-.63-.963.295-4.45 2.11-5.495 2.86-.656.472-1.204.693-1.468.592-.282-.109-.42-.035-.42.226 0 .213-.228.547-.506.742l-.506.354.506 1.18c.278.65.506 1.333.506 1.518 0 .68.8 1.179 1.668 1.038.458-.074.832-.083.832-.02 0 .159-1.297 2.104-1.403 2.104-.047 0-.243-.253-.436-.563zm152.84-5.693c-.206-.124-1.219-.609-2.25-1.077-3.048-1.385-4.91-3.395-6.238-6.734-.315-.793-.675-1.505-.798-1.58s-.394.29-.601.816c-1.48 3.752-2.64 5.207-5.4 6.782-1.717.98-4.783 1.798-6.735 1.798-4.757 0-10.772-1.678-18.01-5.025-1.736-.803-3.688-1.64-4.337-1.86-1.751-.595-5.432-2.67-10.76-6.066-2.61-1.663-4.956-3.174-5.212-3.356-.43-.306.105-.914 6.712-7.636 3.949-4.017 7.6-7.638 8.116-8.046l.937-.742 2.6 2.031c7.953 6.211 15.304 9.487 25.227 11.243 2.924.518 12.94.445 16.289-.118 9.214-1.55 18.527-5.928 26.086-12.264l2.25-1.886.897.925c.494.51 3.721 3.856 7.173 7.438s6.563 6.666 6.915 6.854c.352.189.64.483.64.655 0 .56-3.06 3.115-6.341 5.29-3.834 2.544-15.661 8.569-19.431 9.898-4.02 1.418-8.083 2.393-11.104 2.664-3.352.301-6.121.3-6.625-.004zm26.082-11.48c1.743-1.93 1.756-4.227.03-5.742-1.271-1.116-2.769-1.095-4.027.058-.83.762-.907.946-.907 2.2 0 1.78.578 2.95 1.874 3.79 1.42.92 1.971.865 3.03-.307zm-202.04 3.773c-1.037-.969-1.223-1.83-.586-2.724 1.158-1.626 2.556-1.629 3.545-.007.694 1.138.63 1.613-.35 2.593-1.036 1.036-1.615 1.066-2.609.138zm236.58-3.092c-.412-.296-1.435-1.164-2.273-1.93-1.909-1.743-3.044-2.635-5.102-4.01a66.1 66.1 0 0 1-3.184-2.297c-.858-.667-2.045-1.448-2.638-1.736-.593-.289-1.334-.898-1.647-1.354-.765-1.116-5.475-5.912-10.63-10.825-4.196-3.997-4.222-4.029-3.803-4.597 2.096-2.843 5.683-8.581 6.726-10.76.708-1.478 1.411-2.688 1.563-2.688.468 0 5.3 1.402 14.204 4.121 7.078 2.161 19.795 5.83 24.715 7.129l1.181.312-5.355 5.615-7.418.305-1.574 1.123c-3.077 2.196-4.882 4.783-5.546 7.951-.65 3.1-.118 5.108 2.285 8.614 1.017 1.485 1.152 1.829 1.04 2.66-.122.922-1.233 2.929-1.61 2.912-.102-.004-.522-.25-.934-.546zm-6.355-19.015c1.42-.958 1.98-2.032 1.98-3.806 0-1.82-.511-2.757-2.21-4.052-1.274-.972-1.81-1.015-3.285-.261-1.656.846-2.066 1.572-2.2 3.888-.135 2.32.315 3.575 1.55 4.328 1.11.677 3.084.632 4.165-.097zM83.052 243.89c-1.424-1.544-1.532-2.175-.657-3.845 1.228-2.346 2.736-2.724 4.432-1.112 1.985 1.886 1.827 4.226-.376 5.569-1.349.822-2.222.665-3.4-.612zm1.69-3.037c1.568-1.32.516-3.148-1.142-1.986-.619.433-1.43 2.032-1.212 2.386.29.47 1.581.25 2.354-.4zm128.91-26.415c.396-1.272 2.899-5.935 4.095-7.629 1.112-1.575 1.345-1.782 1.757-1.562.26.14.709.254.996.254.848 0 1.157 1.02.674 2.227-.222.554-.34 1.172-.263 1.373.177.46-2.231 1.894-3.187 1.897-.774.003-1.777 1.045-2.713 2.819-.395.749-.791 1.184-1.08 1.184-.356 0-.416-.121-.279-.563zm-106.64-.115c0-.124.394-.606.875-1.072.953-.924 1.086-1.588.49-2.44-.277-.395-.508-.493-.813-.348-.235.112-1.237.62-2.228 1.129-1.762.905-1.82.917-2.713.544-.832-.348-.9-.346-.76.02.11.286.047.359-.223.255-.234-.09-.378-.002-.378.23 0 .207-.244.466-.543.577-.441.163-.964-.12-2.807-1.516-1.245-.944-2.347-1.866-2.449-2.047-.101-.182-.027-.544.165-.805.281-.38.413-.412.667-.162.175.172.663.313 1.086.313.458 0 1.525.444 2.637 1.097 1.612.947 1.891 1.04 2.029.679.087-.23.349-.576.58-.768.6-.498 1.238-1.836 2.145-4.496.783-2.302.785-2.322.363-3.43-.663-1.733-.323-1.489.6.432 1.027 2.142 2.929 4.126 5.135 5.36.9.504 1.713 1.037 1.804 1.185.092.149-.292.674-.853 1.168a407.8 407.8 0 0 0-2.914 2.608c-1.042.94-1.895 1.61-1.895 1.487zm26.914-2.52c-.868-1.182-2.711-3.019-4.414-4.397-.48-.39-.65-.619-.375-.509s1.698.244 3.161.298l2.661.098.26-.833c.534-1.713.84-3.82.699-4.81l-.146-1.024.636 1.209c.637 1.21 2.57 3.318 3.98 4.337l.75.542-2.337 2.185c-1.284 1.202-2.608 2.617-2.94 3.144-.333.527-.706.958-.83.958-.125 0-.622-.54-1.105-1.198zm-47.65-13.795c-.175-.107-.252-.406-.171-.664.177-.568-.034-.922-.786-1.318-.61-.32-.85-.243-1.779.574-.41.361-.56.408-.48.15.368-1.19 3.074-1.925 4.092-1.112.466.373.461.382-.14.23-.618-.157-.617-.153.096.44.614.51.68.676.445 1.116-.331.619-.844.853-1.278.584zm192.99-2.242c-.345-.104-1.1-.433-1.68-.73-.925-.471-2.712-1.052-4.51-1.465-.31-.071-.736.013-.946.187-.338.28-.318.385.17.904.302.322.486.65.408.729-.078.078-1.094-.252-2.256-.733-2.574-1.066-4.565-1.597-7.687-2.052l-2.375-.345 2.082.127c1.146.07 2.608.186 3.25.258l1.168.131-2-.994c-2.3-1.143-4.125-2.605-4.125-3.302 0-.63.606-.622 3.669.041 4.727 1.025 10.154 3.256 13.718 5.642.956.64 2.244 1.307 2.863 1.483l1.125.32-1.125-.005c-.62-.003-1.407-.091-1.75-.196zm63.747-12.687a255.709 255.709 0 0 1-4.308-3.37c-1.339-1.073-2.66-2.092-2.937-2.265-.601-.375-.664-1.585-.12-2.304.202-.267.367-.627.367-.801 0-.717 9.765-9.588 10.554-9.588.279 0 1.214.66 2.077 1.468 2.156 2.017 3.205 2.785 4 2.929l.675.123-.466-.6a158.25 158.25 0 0 0-1.536-1.917c-.588-.725-1.688-2.354-2.444-3.62-1.687-2.828-2.587-3.756-3.435-3.543-.715.18-9.02 8.595-10.74 10.884-.995 1.323-1.185 1.752-1.185 2.676 0 .605-.113 1.1-.25 1.1-.328 0-.324.925.004 1.127.472.293-.029.623-.957.63-.507.004-1.71.328-2.673.72s-1.788.61-1.836.485c-.173-.461 1.483-2.26 9.353-10.15 5.255-5.269 8.216-8.063 8.546-8.063.832 0 2.897 1.905 8.687 8.014 4.875 5.143 6.583 7.084 5.301 6.027-1.067-.88-3.55.92-10.529 7.633-2.187 2.104-4.044 3.826-4.126 3.826-.082 0-.992-.639-2.023-1.42zm50.14-14.628a246.66 246.66 0 0 1-1.242-2.907c-2.52-5.992-4.618-8.23-11.022-11.753-1.512-.832-2.975-1.682-3.25-1.888l-.5-.374.5-.5c.554-.554.999-.501 4.375.516 3.872 1.166 6.88 3.384 9.524 7.023.723.994 1.457 1.927 1.63 2.074.254.214.236.492-.09 1.402-.382 1.06-.38 1.21.03 2.283.415 1.088.47 1.133 1.054.867 1.133-.516 1.275.067.498 2.047-.379.966-.79 1.82-.915 1.896-.124.077-.39-.232-.592-.686zm10.96-14.716c.19-1.186-.42-2.485-1.167-2.485-.253 0-.401-.096-.329-.213.073-.117-.153-.343-.5-.502-1.038-.473-4.166-2.879-5.042-3.877-1.938-2.212-3.363-6.233-3.255-9.187.038-1.06-.015-2.012-.118-2.116-.237-.238-.08-.501-1.875 3.145-1.74 3.534-3.237 5.537-5.508 7.37-1.531 1.235-7.527 4.74-7.742 4.526-.06-.06.492-.444 1.227-.854 7.322-4.084 9.605-6.246 11.88-11.25 1.513-3.328 1.63-3.541 1.958-3.541.176 0 .623.759.994 1.687 1.358 3.4 3.262 6.91 4.46 8.225 1.447 1.588 3.662 3.09 7.057 4.787 3.008 1.503 3.403 1.874 2.716 2.55-.456.45-4.441 2.75-4.765 2.75-.084 0-.08-.456.01-1.014zm-224.43-8.787c-1.14-1.14-2.59-2.466-3.223-2.948-1.46-1.11-1.831-1.664-1.435-2.141.16-.194.24-.494.174-.668-.133-.356 6.336-6.098 7.534-6.688.422-.208.77-.52.773-.692.007-.414-2.172-4.44-2.592-4.788-.25-.208-.93.352-2.94 2.416-4.095 4.21-5.963 6.862-5.963 8.467 0 .623-.032.643-.437.28-.319-.286-.776-.36-1.688-.276l-1.25.117 6-5.903c3.3-3.246 6.262-6.083 6.582-6.304.576-.398.647-.337 6.817 5.827l6.235 6.228-2.925.25-4.354 4.21c-2.395 2.315-4.553 4.316-4.795 4.447-.36.196-.816-.137-2.513-1.834zm-68.043-3.228c-.702-.616-.829-.853-.603-1.125.378-.455.746-.441.569.021-.103.268.17.444 1.021.658.846.213 1.125.391 1.024.655-.077.2-.14.41-.14.467 0 .383-1.13-.025-1.871-.676zm7.766-3.535c.104-1.583.036-2.146-.37-3.062-.316-.716-.655-1.123-.935-1.123-.323 0-.365-.074-.161-.278.408-.408.754-.09 1.477 1.359.356.712 1.05 1.715 1.543 2.229l.897.934-.735.147c-.932.187-1.512.611-1.697 1.24-.08.272-.089-.379-.019-1.446zm136.15-20.364c-.26-.52-.953-2.24-1.542-3.82-1.226-3.3-2.373-5.668-3.475-7.178-1.82-2.493-5.885-5.058-11.597-7.317-3.03-1.198-4.366-2.195-3.96-2.953.263-.493 1.484-1.159 3.778-2.062.756-.297 2.669-1.229 4.25-2.069 2.434-1.293 3.228-1.88 5.174-3.82 2.147-2.142 2.407-2.516 3.913-5.636.888-1.837 2.03-4.489 2.537-5.892.89-2.458 1.425-3.352 1.72-2.873.077.125.816 1.996 1.642 4.159 2.487 6.511 4.67 10.15 7.205 12.009 1.102.808 5.118 2.883 8.741 4.516 1.941.875 3.037 1.925 2.582 2.473-.439.529-2.068 1.407-4.664 2.514-2.827 1.205-4.723 2.158-5.913 2.972-.515.352-.937.538-.937.413s.098-.288.218-.362c.12-.074.284-.47.366-.879.098-.491.406-.878.905-1.135.416-.215.948-.685 1.183-1.043.412-.629.407-.669-.128-1.102-.655-.53-.713-.489 1.83-1.331 2.024-.67 3.367-1.335 2.156-1.067-.424.094-1.533-.374-3.875-1.635-3.986-2.147-4.424-2.438-6.108-4.054-2.208-2.119-3.482-4.686-5.172-10.427-.35-1.184-.85-2.348-1.115-2.588-.467-.422-.493-.395-.866.903-.212.736-.733 2.8-1.158 4.587-.883 3.715-1.59 5.188-3.23 6.72-1.11 1.04-3.447 2.156-4.51 2.156-.266 0-1.527.55-2.803 1.222-1.275.671-3.12 1.458-4.098 1.747-.979.289-1.916.69-2.082.89-.325.391-.097.475 5.487 2.006 4.749 1.303 8.904 3.965 11.044 7.074 1.34 1.948 2.664 4.726 2.429 5.097-.119.187-.217 1.197-.22 2.246-.003 1.96.159 2.329 1.104 2.504.74.137.975 1.382.5 2.65-.218.582-.496 1.12-.617 1.195-.121.075-.433-.289-.693-.81zm16.957-1.529c-.39-.39-.842-1.154-1.005-1.7-.83-2.768 2.759-5.123 4.758-3.124.906.906 1.138 1.816.773 3.032-.671 2.241-3.11 3.207-4.526 1.792zm31.12-16.101c-.687-.696-2.317-2.067-3.623-3.047-1.469-1.103-2.404-1.983-2.45-2.307-.06-.412.482-.93 2.536-2.428 3.303-2.407 4.58-3.832 6.086-6.793.662-1.3 1.26-2.364 1.328-2.363.069 0 .666 1.123 1.328 2.496 1.446 2.997 2.898 4.672 6.11 7.046 1.271.94 2.312 1.813 2.312 1.94s-.31.45-.688.717c-.794.561-1.613.387-2.055-.438-.151-.283-.48-.514-.732-.514-.705 0-3.681 1.571-5.888 3.108-1.304.908-2.048 1.287-2.162 1.102-.096-.156-.355-.214-.575-.13-.45.173-.52 1.07-.16 2.02.402 1.057-.057.92-1.368-.409zm.704-5.961c.967-.641 3.86-3.614 5.146-5.29.29-.377.19-.74-.736-2.688-.588-1.239-1.162-2.252-1.275-2.252s-.557.703-.988 1.562c-1.205 2.405-2.8 4.495-4.267 5.594-.732.55-2.007 1.498-2.832 2.108l-1.5 1.11 1.71.17c.941.093 1.776.234 1.855.313.388.387 1.827.075 2.887-.627zm-11.023-10.87c-.765-.536-1.375-1.796-1.202-2.483.21-.836 1.514-2.127 2.148-2.127.302 0 .932.382 1.4.85 1.133 1.133 1.175 2.362.119 3.42-.814.813-1.629.926-2.465.34z"/><path fill="#fda82f" d="M422.23 284.02c-1.066-1.066-1.012-2.22.153-3.243.486-.427 1.06-.776 1.275-.776.215 0 .774.382 1.241.85 1.15 1.149 1.179 2.329.081 3.253-1.008.848-1.844.822-2.75-.084zm-176.1-14.184c-2.973-.637-6.378-1.825-9.53-3.325-3.374-1.606-5.334-2.853-8.1-5.154-2.347-1.95-6.75-6.427-6.75-6.861 0-.179-.43-.898-.954-1.598-2.68-3.58-4.03-6.239-5.932-11.677-1.183-3.382-2.153-5.56-2.6-5.836-.389-.24-.946.867-1.252 2.49-.538 2.856-.58 2.885-.913.625-.812-5.524.068-13.332 2.318-20.562.784-2.52.988-2.937 1.436-2.937.368 0 .706-.35 1.147-1.184.935-1.774 1.938-2.816 2.713-2.819 1.016-.004 3.341-1.426 3.183-1.947-.072-.234.073-.875.32-1.425l.452-1 .155 1.125c.085.618.23 1.998.32 3.065l.166 1.941.49-.99c.786-1.59 2.297-3.115 3.965-4.004 1.653-.881 1.662-.882 5.568-.356l1.207.163-1.145-2.28c-1.751-3.487-1.48-4.827 1.23-6.07 1.48-.678 2.009-.587 3.256.562l1.12 1.032v-1.793c0-2.214.34-2.627 3.323-4.025 4.474-2.096 9.802-3.116 15.301-2.929 5.64.193 9.988 1.008 13.812 2.591 1.163.482 2.178.811 2.256.733.079-.078-.105-.406-.408-.729-.488-.519-.507-.623-.17-.903.21-.175.636-.259.946-.188 1.835.422 3.596 1 4.631 1.522.65.328 1.577.682 2.058.787l.875.192-1.5.565c-1.45.547-1.475.571-.75.732 2.457.545 4.5 1.841 6.183 3.923 1.125 1.392 1.4 1.926 2.178 4.224.674 1.993 1.034 2.39 1.302 1.437.132-.47.167-.415.187.302.014.483.311 1.383.66 2 3.959 6.982 5.475 12.614 4.86 18.045-.319 2.813-.921 4.27-1.995 4.826-.724.374-.834.376-1.23.018-.239-.217-3.125-1.295-6.414-2.398-3.49-1.169-7.126-2.575-8.73-3.375-10.187-5.08-17.116-14.099-19.878-25.87-.435-1.856-.882-3.6-.993-3.875-.245-.609-.246-.608-1.007 2.75-1.998 8.82-5.183 15.026-10.384 20.235-5.246 5.255-11.41 8.376-22.114 11.196-2.208.582-3.125.931-3.125 1.19 0 .203 2.33 2.114 5.177 4.248 5.9 4.422 9.92 8.009 16.483 14.7 10.168 10.37 13.605 14.817 13.416 17.367-.062.836-.215 1.107-.826 1.464-.948.553-3.568.58-5.994.06z"/><path fill="#fd8f46" d="M256.3 391.95c-.395-.395-.386-1.217.013-1.137.225.045.315-.42.323-1.664l.01-1.725 1.615-1.608c2.107-2.1 3.504-2.816 5.486-2.816h1.515l-.407.62c-.224.342-1.154 1.177-2.068 1.857-2.1 1.561-2.903 2.421-4.511 4.836-.71 1.065-1.378 1.937-1.484 1.937s-.327-.135-.492-.3zm-141.14-15.401c-.739-1.216-2.382-2.939-4.467-4.683-.694-.58-.529-1.077.415-1.254.676-.127 1.053-.025 1.808.489 1.18.801 2.52.858 3.292.139.3-.28.547-.674.547-.875 0-.452.027-.452.909.008.394.205.898.374 1.12.375.509.002 1.721.94 1.72 1.332 0 .162-.682 1.13-1.516 2.15s-1.736 2.286-2.005 2.812c-.268.527-.59.957-.715.957s-.623-.652-1.108-1.45zm167.14-15.112c-1.083-2.792-2.752-5.08-5.335-7.313-1.875-1.62-4.273-2.928-7.131-3.885-1.262-.423-2.415-.914-2.562-1.091-.147-.178-.373-.874-.5-1.548-1.123-5.92-5.573-12.28-10.736-15.348-2.436-1.447-6.75-3.143-9.282-3.649-2.106-.42-5.599-.402-9.158.047l-1.282.162-.922-2.876c-.971-3.031-3.409-8.288-5.013-10.811-3.415-5.373-9.866-11.667-15.507-15.132-3.94-2.42-9.39-4.908-12.608-5.755-1.025-.27-1.963-.59-2.084-.71-.31-.31.336-1.416 1.75-2.994l1.203-1.342 1.247.74c.686.408 3.04 1.897 5.23 3.309 4.542 2.928 8.305 5.04 10.024 5.623.65.22 2.601 1.058 4.337 1.86 7.502 3.47 13.216 5.023 18.487 5.027 3.826.003 6.063.697 8.139 2.524 1.534 1.35 2.57 3.006 3.183 5.086.286.97.607 1.856.713 1.969s.602-.844 1.1-2.125c1.448-3.722 2.91-5.337 5.87-6.485 1.147-.445 2.22-.587 5.665-.752 2.337-.111 4.933-.318 5.769-.46 2.39-.406 7.53-1.878 10.096-2.893 3.924-1.552 14.843-7.221 18.212-9.457 3.243-2.152 6.297-4.704 6.297-5.262 0-.172.421-.585.936-.918.515-.333 1.205-1.022 1.534-1.53l.598-.924 1 .51c.55.28 1.687 1.045 2.528 1.698a65.59 65.59 0 0 0 3.154 2.274c2.036 1.36 3.13 2.223 5.22 4.12.91.824 1.936 1.703 2.28 1.95.476.345.506.411.125.28-.275-.095-1.513-.407-2.75-.693-1.915-.442-3.068-.52-7.75-.52-4.773 0-5.847.074-8.125.565-6.092 1.312-13.424 4.461-17.99 7.726-5.808 4.153-11.691 11.024-14.504 16.94-2.141 4.505-3.751 10.68-3.755 14.406-.006 5.94 2.833 11.262 7.058 13.23 1.563.728 1.969.8 5.625 1.003 2.167.12 5.136.222 6.597.228 2.582.009 2.656.025 2.664.572.005.309.365 1.339.801 2.288 1.118 2.434 2.246 6.001 2.418 7.65l.146 1.402-3.593.8c-4.056.903-7.56 1.546-8.425 1.547-.455 0-.674-.234-.995-1.063zm-171.38-51.805c-.23-.23-.419-.57-.419-.755s-.227-.868-.506-1.517l-.506-1.18.506-.355c.279-.195.506-.529.506-.742 0-.26.138-.334.421-.226.264.101.812-.12 1.468-.59 1.045-.751 4.531-2.566 5.494-2.861.403-.124.568.003.798.612.382 1.012.286 1.198-1.332 2.596-1.028.887-3.638 4.013-4.245 5.083-.023.04-.43.137-.904.214-.616.1-.982.02-1.281-.279zm46.255-8.05c-1.027-2.017-6.173-16.393-6.173-17.245 0-.257.522-.34 2.187-.346 5.71-.022 8.823-.67 10.888-2.263 1.395-1.076 3.392-3.437 4.12-4.867.758-1.493 1.554-4.621 1.554-6.108 0-.89.134-1.29.563-1.685.642-.593 2.636-1.322 3.113-1.14.176.068.446.59.6 1.16s.407 1.486.564 2.036l.285 1h2.875c2.542 0 3.02.071 4.125.612.688.336 1.88 1.239 2.652 2.006 1.372 1.366 1.409 1.44 1.813 3.639.226 1.234.411 2.49.41 2.791 0 .813.361.903 1.86.468 2.355-.685 3.874-3.143 3.576-5.785-.169-1.5-1.645-4.455-2.99-5.983-.589-.67-2.08-1.865-3.312-2.657-1.436-.923-2.11-1.488-1.875-1.575.202-.075 4.191-1.42 8.866-2.99 4.675-1.57 9.884-3.37 11.574-4.002 1.691-.632 3.115-1.148 3.165-1.148.05 0 .507.759 1.016 1.687s2.019 3.263 3.356 5.188c3.41 4.911 3.28 4.25 1.188 6.005-.98.822-4.543 3.857-7.916 6.745s-6.624 5.636-7.225 6.107l-1.093.857.167 1.626.166 1.625-4.648 4.58-4.423.158c-2.433.087-5.606.334-7.051.549-7.116 1.056-16.154 4.51-21.114 8.069-1.045.75-2.035 1.415-2.201 1.478-.166.064-.464-.202-.662-.592zm177.23-12.267a94.705 94.705 0 0 0-.563-2.379c-.069-.244.012-.437.183-.437.501 0 1.96-1.23 2.745-2.313.952-1.314.925-2.102-.125-3.662-.817-1.214-.832-1.275-.312-1.271.3.002 1.22.167 2.045.366s1.894.367 2.375.373c.654.008 1.176.268 2.063 1.028 1.819 1.559 1.69 1.815-1.938 3.865-1.64.927-3.613 2.811-4.788 4.573-.52.779-1.012 1.502-1.094 1.607s-.348-.683-.591-1.75zm-83.777-18.816-1.25-.171 1-.058c.55-.032 1.337-.255 1.75-.495.606-.354.776-.651.886-1.545l.136-1.106.303 1.033c.167.569.472 1.173.677 1.344.205.17.373.395.373.499 0 .188-2.037.785-2.423.71a60.198 60.198 0 0 0-1.452-.21zm91.75-4.523c-.412-.121-4.519-1.284-9.125-2.583s-12.256-3.55-17-5c-4.744-1.452-9.592-2.888-10.775-3.19l-2.15-.552.562-1.389c1.846-4.557 3.223-10.26 3.67-15.197l.3-3.308 12.495-.133.734-1.045c.747-1.064.928-2.056.537-2.955-.2-.46-.18-.47.246-.125.376.305 1.265.367 4.765.331 4.431-.044 10.31-.446 12.463-.851 1.86-.35 9.487-.296 9.853.07.165.165.3.212.3.104 0-.443 2.581 2.825 3.238 4.1 1.948 3.782 3.363 10.924 3.638 18.371.077 2.062.191 4.328.256 5.036.112 1.233.089 1.292-.57 1.454-2.182.538-7.427 3.501-10.472 5.917-1.598 1.267-1.731 1.31-2.965.945zm-13.41-9.895c.644-2.589 1.667-4.619 3.171-6.292 1.39-1.546 2.47-2.146 5.051-2.806 1.044-.267 1.942-.53 1.997-.585.055-.055-.346-.175-.891-.267-1.633-.276-3.97-1.535-5.454-2.937-1.581-1.496-2.466-3.093-3.473-6.27-.75-2.363-.898-2.396-1.39-.302-.975 4.16-3.646 7.288-7.466 8.748-.968.37-1.76.763-1.76.874 0 .24.627.504 1.208.507.828.005 3.061 1.246 4.261 2.368.785.735 1.538 1.795 2.095 2.95.967 2.007 1.936 4.864 1.936 5.711 0 .89.174.476.715-1.7zm-116.63-8.13c-1.79-5.318-1.984-6.561-1.464-9.354.419-2.254.953-3.486 1.394-3.214.484.3 1.242 2.072.93 2.176-.38.127.064 4.148.795 7.2.65 2.713.684 5.72.072 6.477-.432.533-.462.474-1.727-3.285zm86.378-23.015c-.211-.172-.687-1.156-1.058-2.187-1.097-3.049-2.657-4.813-4.257-4.813-.474 0-.647-.229-.986-1.304-.391-1.24-2.2-5.024-3.5-7.326-.358-.633-.672-1.706-.771-2.633-.144-1.344-.083-1.747.434-2.863.584-1.262.61-1.282.878-.693.152.334.882 1.428 1.623 2.431 4.44 6.013 6.268 10.268 8.28 19.263.116.516-.11.56-.643.125zm-195.84-7.748c-.55-.857-1.366-2.038-1.813-2.625s-.812-1.11-.812-1.162c0-.052.225-.153.5-.225.275-.072.5-.306.5-.521 0-.246.14-.337.378-.246.27.104.334.03.224-.256-.14-.365-.073-.367.759-.02.893.374.95.362 2.713-.543.99-.51 1.993-1.017 2.228-1.13.305-.144.536-.046.812.349.597.852.464 1.516-.489 2.44-.481.466-.875.944-.875 1.06 0 .44-2.555 4.44-2.834 4.437-.16 0-.741-.702-1.291-1.558zm-18.002-14.804c-1.557-.669-2.666-2.608-2.401-4.2.108-.651.152-.7.223-.247.175 1.098 1.812 1.329 2.843.4.227-.204.564-.35.75-.325.686.094.951-.026 1.237-.56.255-.477.2-.623-.43-1.146-.711-.59-.712-.596-.095-.433.343.09.934.495 1.312.9.541.577.688.975.688 1.867 0 1.805-.803 2.988-2.511 3.702-.721.301-.994.308-1.616.042zm260.75-12.796a11.857 11.857 0 0 0-1.676-1.102c-.509-.267-2.252-1.737-3.875-3.267-4.466-4.212-6.118-5.19-9.477-5.61-1.117-.14-1.432-.3-1.964-.996-.348-.457-.633-.927-.633-1.044 0-.341 3.408-1.57 4.355-1.57.878 0 1.363-.336.899-.623-.323-.2-.334-1.127-.013-1.127.133 0 .362.225.509.5.358.67.712.63 1.549-.172.764-.733 1.006-.327.334.561-.628.83-.473 1.92.354 2.486.402.275 2.23 1.685 4.06 3.133 1.83 1.448 3.696 2.892 4.147 3.209l.818.576 2.182-2.001c1.2-1.101 2.743-2.587 3.43-3.302 2.112-2.197 7.026-6.179 7.85-6.36.952-.209 1.55.19 3.776 2.517l1.625 1.698-2.25.403c-1.238.221-2.614.595-3.058.83-.982.523-3.263 2.33-4.908 3.892-.887.842-7.07 7.608-7.261 7.945-.013.022-.36-.237-.773-.576zm47.472-25.251c-.412-1.08-.412-1.208.001-2.55.8-2.6 2.43-5.59 3.765-6.913 1.332-1.32 5.16-3.625 6.02-3.625.8 0 1.393 1.237 1.215 2.538-.135.986-.27 1.16-1.413 1.838-2.546 1.508-5.227 4.834-6.686 8.292-.498 1.181-.733 1.498-.949 1.282-.214-.213-.444-.215-.903-.006-.583.266-.639.22-1.05-.856zm-215.85-16.602c-4.514-4.38-8.115-7.486-8.678-7.486-.177 0-.324.253-.326.562-.002.31-.109.729-.237.931-.196.31-.333.275-.87-.23-.352-.33-.639-.706-.639-.835 0-.128.448-.77.996-1.424.91-1.085 1.112-1.201 2.306-1.316 1.197-.115 1.405-.053 2.415.718 1.146.875 1.97 1.057 2.479.548.437-.437.709-.01.355.557-.396.634-.108 1.094 1.397 2.239.633.481 2.084 1.808 3.224 2.948 1.7 1.7 2.152 2.029 2.513 1.832.242-.132 2.433-2.162 4.868-4.51l4.429-4.27h1.46c1.337 0 1.53.072 2.3.866l.84.866-1.131.485c-.82.351-2.725 2.039-6.926 6.134-3.188 3.107-5.932 5.644-6.098 5.639-.166-.005-2.271-1.92-4.677-4.255zm-60.224-.483c-.38-.841-1.182-1.816-2.466-3-1.047-.964-1.754-1.753-1.572-1.753s.46-.175.617-.39c.253-.346.435-.318 1.652.248.753.35 1.613.638 1.913.64.683.002 1.518-1.036 1.726-2.149.088-.467.26-.85.382-.85s.222-.205.222-.457c0-.452.592-.861 1.685-1.168.548-.153 1.05.165 3.275 2.071l.665.57-.86.68c-1.895 1.497-4.375 4.008-5.303 5.367-.54.79-1.069 1.438-1.177 1.438s-.45-.561-.759-1.247zm139.93-31.814c-.046-.325-.29-.598-.58-.652-.955-.175-1.125-.541-1.125-2.423 0-2.121.333-3.028 2.422-6.588 1.81-3.086 3.897-5.17 6.367-6.36 2.5-1.204 2.787-1.263 3.476-.705.566.458.57.495.158 1.126-.235.358-.768.828-1.184 1.043-.509.263-.806.643-.91 1.164-.099.492-.852 1.513-2.073 2.809-1.055 1.12-2.383 2.82-2.95 3.779-.944 1.593-3.056 6.51-3.056 7.113 0 .504-.467.241-.545-.306zm49.282-11.878c-.608-.928-1.13-1.912-1.16-2.187-.03-.275-.13-.976-.222-1.558-.14-.87-.093-1.087.263-1.224.238-.091.511-.039.607.117.115.185.859-.194 2.163-1.102 2.18-1.52 5.18-3.108 5.867-3.108.24 0 .622.281.847.625s.576.625.779.625c.679 0 .382.37-1.367 1.704-2.367 1.806-4.2 3.852-5.368 5.998-.54.989-1.053 1.798-1.142 1.798-.089 0-.66-.76-1.267-1.688z"/><path fill="#fd4888" d="M226 393.13c-.724-1.166-2.191-2.463-4.253-3.76-1.923-1.21-3-2.07-3-2.394 0-.19 3.131-1.984 3.446-1.974.099.003-.102.222-.446.487-.474.365-.555.55-.334.772.438.44 3.02.977 4.716.982 1.813.005 2.5-.402 2.857-1.691.278-.999.36-6.255.11-6.91-.242-.63-.802-.46-1.236.378-.22.425-.455.718-.522.65-.173-.173 1.37-3.173 1.632-3.173.118 0 .986 1.265 1.929 2.812 2.13 3.497 2.995 4.468 5.292 5.946 2.034 1.308 2.029 1.44-.087 2.065-2.943.867-5.235 2.424-7.208 4.897-1.568 1.965-2.132 2.143-2.896.913zm133.05-4.345c-.44-.28-.06-1.228.956-2.386.921-1.049 1.698-1.155 2.934-.402.701.428.794.596.652 1.186-.09.379-.177.689-.192.689-.015 0-.5.253-1.077.562-1.05.563-2.666.736-3.273.35zm2.402-.85c-.057-.404-.275-.586-.767-.642-.453-.053-.688.037-.688.262 0 .484.519.942 1.068.942.341 0 .446-.152.387-.563zm-225.69-1.688c-.041-.757-.127-1.178-.19-.938-.144.554-.13.556-1.22-.184l-.917-.621-.721.996c-.903 1.246-1.463 1.267-2.88.106-.597-.49-1.2-.82-1.338-.735-.69.426-.108-.44.977-1.455 1.853-1.733 2.8-1.82 4.715-.431 1.52 1.101 1.851 1.727 1.742 3.301l-.093 1.336zm-3.333-1.03c.688-1.443-.611-2.903-1.857-2.087-1.038.68-1.149 1.243-.418 2.112.818.972 1.804.96 2.275-.026zm143.71.01c-1.064-1.263-.678-2.814.902-3.631.9-.466 1.496-.29 2.315.683.865 1.028.832 2.06-.095 2.987-1.025 1.025-2.24 1.01-3.122-.039zm20.884-10.25c-.377-1.08.249-2.334 1.535-3.073l.924-.532.926.5c.509.275.98.668 1.045.875.098.306.052.318-.256.065-.313-.26-.508-.146-1.177.687-.44.548-1.161 1.181-1.602 1.407-.44.226-.87.518-.956.65-.085.131-.283-.129-.44-.579zm2.666-2.347c-.1-.699-.73-.75-1.526-.125-.77.605-.871 1.354-.234 1.713.571.322 1.867-.847 1.76-1.588zM88.26 331.081c-.667-.848-.905-1.79-.544-2.152.209-.21.282-.203.282.024 0 .214.184.185.617-.099.339-.222.76-.35.937-.285.176.066-.15.336-.724.6-1.342.619-1.116 1.143.444 1.032 1.166-.084 1.327-.388.838-1.58-.183-.444-.16-.461.216-.156.671.546.534 1.831-.28 2.61-.875.839-1.13.84-1.786.006zm315.83-37.587c-.15-.15-.564-.304-.92-.342-.669-.072-2.422-1.135-2.425-1.471-.002-.21 1.499-1.182 1.825-1.183.111 0 .133.111.048.249-.085.137 0 .25.186.25.187 0 1.271.45 2.408 1 2.1 1.015 2.878 1.2 3.156.75a.57.57 0 0 1 .452-.242c.164.005.033.23-.292.5-.595.496-1.307.637-1.623.32-.174-.173-1.999-.848-2.04-.754-.013.028-.131.309-.262.624-.173.415-.314.497-.513.3zm5.161-1.326c-.004-.112.11-.423.252-.69.185-.345.146-1.471-.134-3.89-.217-1.873-.354-3.446-.304-3.497.05-.05.597.67 1.215 1.6l1.122 1.693-.703 1.494c-.388.822-.705 1.725-.705 2.009 0 .48-.725 1.729-.743 1.28zm8.316-18.745c-.823-.457-.364-.883 1.05-.972 1.023-.065 1.292-.185 1.542-.69.267-.537.229-.679-.32-1.187-.487-.452-.91-.577-1.953-.577-.879 0-1.438-.127-1.643-.375-.533-.642-.998-.443-1.022.438l-.021.812-.21-.702c-.277-.92.31-2.909 1.06-3.596.876-.8 2.08-1.327 3.036-1.327 2.516 0 4.367 4.252 2.839 6.52-1.149 1.704-3.004 2.409-4.359 1.656zm.772-3.915c1.19-.452 1.401-3.24.278-3.67-.21-.081-.723-.007-1.138.165-1.557.645-1.985 2.315-.827 3.226.752.592.83.605 1.687.28zm-164.97 1.276-.75-.187.938-.186c.515-.103.937-.248.937-.323 0-.075-.225-.423-.5-.773-.275-.35-.5-.792-.5-.984 0-.47-1.793-3.607-3.12-5.459-2.372-3.308-12.594-14.015-18.793-19.68-1.847-1.688-5.68-4.813-8.518-6.944-4.948-3.716-6.151-4.818-4.79-4.388.328.104 2.386.568 4.574 1.032 5.841 1.238 10.35 3.052 14.64 5.892 2.426 1.607 6.16 5.317 8.43 8.38 3.224 4.348 6.445 12.004 7.708 18.321.233 1.163.511 2.344.619 2.625.186.485.203.48.331-.113.075-.343.432-2.03.795-3.75 2.191-10.389 7.585-19.444 14.732-24.732 1.902-1.407 7.9-4.47 10.268-5.242 2.674-.872 7.179-1.806 9.154-1.897 1.06-.049 2.173-.22 2.473-.38 1.804-.966 2.45-7.75 1.207-12.684-.372-1.478-.083-1.7 1.299-1.002 1.376.697 2.27 1.971 3.172 4.528.472 1.337.866 2.046 1.229 2.215.668.31.799 1.039 1.007 5.626l.161 3.558-3.451-.115-1.887 5.625c-1.984 5.91-3.557 9.35-5.948 13-1.771 2.704-8.055 9.022-11.11 11.17-4.216 2.965-9.391 5.235-14.469 6.347-2.476.542-8.476.859-9.837.52zm-86.053-10.52c-2.655-5.528-7.26-9.827-11.947-11.153-.825-.233-1.541-.461-1.592-.507-.05-.045-.074-2.197-.053-4.781.033-4.015-.037-4.992-.476-6.7-.583-2.264-1.603-4.577-2.758-6.256l-.785-1.141.666-2.802c1.805-7.585 2.224-9.149 3.344-12.47 1.576-4.675 2.118-5.932 4.935-11.456 3.094-6.065 2.834-5.771 4.764-5.364 2.264.477 16.033 5.829 33.002 12.826 4.014 1.655 7.759 3.147 8.323 3.316.774.232.987.404.87.702-.59 1.5-2.015 7.037-2.678 10.411l-.793 4.03-9.686.166c-5.328.092-9.968.274-10.31.404-.804.306-1.427 1.523-1.48 2.89-.032.842.096 1.227.583 1.748 1.25 1.338 1.466 1.373 8.424 1.348 3.548-.012 7.77-.096 9.382-.187l2.932-.165.133 1c.557 4.192.989 6.678 1.887 10.855.568 2.64.975 4.952.904 5.136-.07.184-.78.579-1.578.877-3.037 1.136-33.514 10.017-34.306 9.996-.263-.007-.858-.957-1.707-2.724zm9.929-4.772c0-1.768 1.421-4.662 2.953-6.014 1.321-1.165 2.921-2.043 4.496-2.467 1.297-.35 1.184-.65-.33-.876-2.238-.336-4.64-1.73-5.844-3.392-.662-.914-.975-1.751-1.894-5.067-.22-.795-.496-1.388-.612-1.316-.116.072-.292.777-.39 1.567-.308 2.46-1.048 4.012-2.74 5.746-1.103 1.13-1.718 1.574-2.182 1.574-.356 0-1.363.271-2.24.602-1.525.577-1.56.609-.842.768 3.505.773 6.365 3.24 7.884 6.8.4.938.73 1.839.734 2.002.014.632.518 1.6.756 1.454.138-.085.25-.707.25-1.38zm-6.875-26.465c.825-.395 1.893-1.133 2.375-1.638.846-.889.877-.992.962-3.15.073-1.877.003-2.406-.441-3.323-.86-1.778-3.392-3.524-5.533-3.817-2.939-.403-5.988 1.887-7.385 5.546-.413 1.079-.41 1.11.256 2.424.807 1.596 2.446 3.566 3.5 4.21.579.352 1.254.466 2.765.467 1.69 0 2.233-.11 3.5-.719zm19.154-9.75c1.213-1.214 1.29-2.165.263-3.314-.59-.66-.898-.795-1.858-.816-.952-.02-1.284.102-1.918.71-.613.586-.767.94-.767 1.764 0 1.169.3 1.653 1.375 2.214 1.201.628 1.842.504 2.905-.559zm31.17 34.163c-1.346-1.653-2.174-2.997-3.942-6.4-2.227-4.285-2.719-4.325-1.855-.15.421 2.038.366 3.351-.23 5.473l-.349 1.24-.304-.923c-.257-.778-.243-1.012.087-1.484.56-.8.505-3.843-.117-6.44-.596-2.486-1.157-6.926-.906-7.176.322-.323.616.275 1.786 3.637 1.895 5.442 3.24 8.089 5.962 11.723 1.197 1.598 1.09 2-.132.5zm150.65-6.666c-1.725-1.053-2.32-2.716-1.44-4.034.814-1.22 2.18-2.474 2.86-2.623 1.148-.252 3.126.987 3.876 2.43.491.943.438 1.875-.16 2.845-1.084 1.752-3.474 2.395-5.135 1.382zm2.085-4.107c.683-1.003.695-1.223.099-1.763-.496-.448-1.095-.353-1.849.294-.583.502-.551 1.02.106 1.72.723.769.977.73 1.644-.251zM98.018 230.86c-.435-.367-.955-.6-1.16-.521-.633.243-.411-.202.567-1.137 1.154-1.104 1.818-1.455 2.748-1.455.669 0 2.036.725 1.4.742-.159.004-.242.205-.185.446.058.24-.152.887-.467 1.437-.741 1.297-1.741 1.465-2.903.488zm2.17-.163c.418-.418.373-1.483-.09-2.144-.495-.707-.654-.698-1.592.091-.911.767-.922.84-.25 1.694.547.696 1.43.86 1.931.36zm222.56.133c-.34-.072-1.07-.441-1.626-.82-2.008-1.37-1.881-1.349-7.806-1.286l-5.55.058-.244-.955c-.135-.525-.322-1.461-.417-2.08s-.436-2.306-.76-3.75c-.46-2.05-.522-2.689-.285-2.917.166-.161 1.596-.71 3.177-1.22 3.673-1.184 5.826-2.154 6.308-2.843.287-.41.536-.506 1.005-.388 1.344.337 25.517-6.959 26.761-8.077.422-.378.584-.269 2.625 1.776l2.176 2.179-.875.662c-1.86 1.407-4.169 3.983-4.887 5.453-1.37 2.804-1.068 6.583.713 8.919 1.186 1.554 2.994 2.824 4.694 3.297 1.233.342 1.48.503 1.48.96 0 .427-.066.482-.3.25-.373-.374-7.956-.417-9.966-.058-3.005.538-14.783 1.147-16.224.84zm-127.02-42.972c-4.238-3.387-5.683-4.804-6.774-6.64-1.435-2.416-3.336-4.036-7.004-5.971-2.002-1.056-3.112-1.787-3.17-2.088-.105-.555 9.614-10.342 11.584-11.663.687-.46 2.656-1.978 4.375-3.37 5.103-4.137 7.785-5.748 16.125-9.687 10.827-5.113 18.908-7.747 28.972-9.444 5.972-1.007 11.092-1.324 19.063-1.182 5.669.101 7.339.222 10.716.774 6.656 1.09 14.457 2.88 17.446 4.006 1.95.735 6.586 3.052 6.8 3.4.2.322-.683 1.795-5.625 9.38-2.15 3.3-4.79 7.429-5.867 9.176l-1.957 3.177-.713-.6c-1.035-.87-7.521-2.768-12.084-3.535-3.361-.566-20.53-.658-23.25-.126-2.14.419-14.63 4.243-17.31 5.3-2.242.885-8.523 4.11-11.44 5.875-5.645 3.415-13.224 9.953-15.556 13.42-.64.952-1.317 1.688-1.551 1.688-.229 0-1.48-.85-2.78-1.89zm4.26-9.366c0-1.769 1.422-4.663 2.954-6.014 1.322-1.165 2.922-2.043 4.496-2.467 1.297-.35 1.184-.65-.33-.877-2.238-.335-4.64-1.73-5.844-3.392-.662-.913-.975-1.75-1.894-5.066-.22-.796-.496-1.388-.612-1.316-.116.072-.292.777-.39 1.567-.308 2.459-1.048 4.012-2.74 5.745-1.103 1.131-1.718 1.575-2.182 1.575-.356 0-1.363.27-2.24.602-1.525.576-1.56.609-.842.767 3.506.774 6.365 3.24 7.884 6.801.4.938.73 1.838.734 2.001.014.632.518 1.601.756 1.454.138-.085.25-.706.25-1.38zm34-16.5c0-1.769 1.422-4.663 2.954-6.014 1.322-1.165 2.922-2.043 4.496-2.467 1.297-.35 1.184-.65-.33-.877-2.238-.335-4.64-1.73-5.844-3.392-.662-.913-.975-1.75-1.894-5.066-.22-.796-.496-1.388-.612-1.316-.116.072-.292.777-.39 1.567-.308 2.459-1.048 4.012-2.74 5.745-1.103 1.131-1.718 1.575-2.182 1.575-.356 0-1.363.27-2.24.602-1.525.576-1.56.609-.842.767 3.506.774 6.365 3.24 7.884 6.801.4.938.73 1.838.734 2.001.014.632.518 1.601.756 1.454.138-.085.25-.706.25-1.38zm43.734-3.111c1.063-.55 2.017-1.812 2.017-2.67 0-1.121-.427-1.71-1.625-2.24-1.318-.583-1.947-.402-3.078.886-1.257 1.43-.972 2.833.795 3.91.942.575.994.578 1.89.114zm-19.973-4.71c1.234-.653 2.24-2.246 2.24-3.549s-1.006-2.897-2.24-3.55c-.6-.316-1.447-.575-1.885-.575s-1.287.26-1.885.576c-1.235.653-2.24 2.246-2.24 3.549 0 .438.259 1.286.575 1.885.653 1.235 2.246 2.24 3.55 2.24.438 0 1.286-.26 1.885-.576zm114.57 12.455c-.813-.569-1.082-1.616-.702-2.724.712-2.07 1.966-2.479 3.321-1.08 1.145 1.181 1.088 2.106-.201 3.271-1.092.987-1.609 1.1-2.418.533zm-43.748-20.01c0-.211.628-.722 1.395-1.136 1.923-1.036 2.102-1.206 2.581-2.446l.421-1.09-.553.158c-1.836.524-1.844.521-2.024-.606-.303-1.892-.741-2.405-2.988-3.493-1.142-.553-2.22-1.005-2.395-1.005-.664 0-1.842.92-2.693 2.102-.786 1.092-.871 1.36-.769 2.425.064.66.011 1.303-.117 1.431-.143.143-.026.637.306 1.286.295.58.472 1.12.392 1.2-.293.293-1.694-1.362-2.385-2.82-.997-2.1-1.163-3.52-.614-5.264.578-1.839 1.225-2.768 2.705-3.887 2.424-1.832 4.191-2.723 5.399-2.723 2.512 0 5.94 2.487 7.235 5.25.536 1.141.645 1.736.644 3.5-.002 2.545-.414 3.553-2.18 5.325-1.714 1.72-4.36 2.809-4.36 1.792zm-4.187-10.03c1.39-.912 1.685-2.903.547-3.7-.458-.32-.623-.307-1.462.12-.972.497-1.319 1.113-1.285 2.287.045 1.581.949 2.112 2.2 1.292zm-32.95-4.783a299.186 299.186 0 0 0-5.54-5.497c-2.028-1.94-2.381-2.39-2.177-2.77.34-.634 12.898-12.788 13.213-12.788.141 0 1.358 1.21 2.704 2.687 1.346 1.478 4.192 4.455 6.324 6.614 3.722 3.771 3.86 3.946 3.45 4.399-.236.26-1.073.616-1.862.792-3.315.74-6.037 2.48-9.383 5.997-1.197 1.258-2.176 2.386-2.176 2.507 0 .12-.323.45-.717.73l-.717.51zm.983-11.324c4.258-3.786 4.82-4.368 4.82-4.99 0-.8-1.186-2.742-1.676-2.742-.223 0-2.322 1.908-4.664 4.239l-4.258 4.239.487.547c.747.84 1.907 1.475 2.296 1.257.19-.106 1.537-1.253 2.995-2.55zm56.395 13.601c-.111-.29.137-.668.82-1.246 1.084-.917 1.692-1.123.975-.33-.56.62-.33.896 1.01 1.21l.996.233-1.298.025c-.714.014-1.367.138-1.452.275-.243.393-.875.293-1.05-.167zm11.45-6.115c.555-.78.555-.785.118-2.562-.669-2.72-.602-2.627-1.285-1.78-.332.412-.605.635-.606.495 0-.26 1.192-2.12 1.36-2.12.052 0 .604.773 1.226 1.718 1.115 1.691 1.247 2.364.623 3.152-1.215 1.531-1.54 1.88-1.75 1.88-.134 0 .007-.353.313-.783zm-209.86-3.6c-.943-1.035-2.384-2.338-3.203-2.894-1.231-.837-1.438-1.075-1.19-1.374.165-.199.229-.434.14-.521-.087-.088.386-.527 1.052-.975 1.503-1.012 3.15-2.855 3.938-4.408.56-1.101.597-1.432.57-5-.034-4.402-.174-5.336-.792-5.286-.236.02-.429-.054-.429-.162 0-.339 1.783-1.778 2.08-1.68.156.053.91 1.549 1.674 3.326 2.59 6.015 4.263 7.929 9.488 10.85 1.838 1.028 3.576 2.065 3.863 2.304.505.423.472.436-1.13.444-1.97.01-6.344 1.061-8.1 1.947-2.698 1.36-4.39 2.743-5.875 4.794-.365.504-.422.467-2.087-1.364zm195.84-2.807c-.554-.553-1.002-1.245-1.002-1.544 0-1.286 1.411-2.767 2.637-2.767.227 0 .795.383 1.263.85.686.687.85 1.045.85 1.861 0 1.241-.778 2.223-1.936 2.445-.71.137-.936.032-1.813-.845zm-22.753-38.493c0-.336.325-.931.73-1.337.87-.868 2.202-.996 2.856-.273.56.618.521.793-.176.793-.324 0-1.224.32-2 .71l-1.41.712zm-47.257-7.13c-.004-.516-.263-1.122-.71-1.662l-.705-.848-.78.576c-.45.333-1.172.59-1.712.609-.784.027-.98.15-1.236.772l-.303.74-.167-.886c-.336-1.787 1.496-4.489 3.044-4.489 1.614 0 3.826 2.096 3.826 3.625 0 .602-.855 2.375-1.146 2.375-.057 0-.107-.365-.111-.812zm-42.888-4.303c-.318-1.266.822-2.885 2.032-2.885.64 0 1.775 1.12 1.382 1.364-.148.091-.269.453-.269.803 0 .464-.102.598-.375.493-.206-.079-.375-.037-.375.094 0 .13-.31.306-.687.39-.379.084-.881.205-1.117.269-.301.081-.478-.076-.591-.528z"/><path fill="#3790f2" d="M137.12 363.75c-2.063-.091-4.17-.306-4.683-.477-1.139-.38-3.42-2.82-4.315-4.615-.562-1.13-.627-1.561-.627-4.194 0-3.497.203-4.22 1.181-4.209.382.004.912.173 1.18.375.266.202.727.367 1.024.367 1.122 0 5.115-3.43 5.115-4.393 0-.769.775-.563 3.957 1.054 1.45.737 2.653 1.34 2.675 1.34.022 0 .114-1.538.204-3.417.09-1.88.225-3.479.3-3.553.075-.075.35-.003.612.16.262.164 1.272.479 2.245.7 1.038.236 2.066.652 2.487 1.006.394.332.794.603.887.603.093 0 1.146-.899 2.339-1.998 4.922-4.534 9.507-7.15 15.216-8.68 2.212-.593 2.908-.66 7.078-.677 5.27-.022 6.261.171 10.156 1.983 4.41 2.051 8.068 5.111 10.455 8.747 1.447 2.204 1.925 3.333 3.258 7.688.494 1.615.939 2.937.988 2.937.049 0 1.029.178 2.179.395 3.892.734 6.232 2.265 8.98 5.876.818 1.074 1.69 2.099 1.938 2.278 1.352.975 2.211.953-35.126.91-19.774-.022-37.64-.115-39.702-.206zm105.38-.32a18.56 18.56 0 0 1-.947-1.034c-.178-.22-.583-.399-.9-.399-.86 0-2.116-.951-3.46-2.618-1.696-2.106-1.637-2.273.87-2.468 1.134-.088 2.576-.161 3.204-.162 1.596-.002 3.615-.653 4.512-1.455.56-.5.844-1.069 1.086-2.174.18-.824.498-2.126.707-2.894.647-2.38-.093-4.804-2.15-7.041-.978-1.063-1.922-1.544-1.922-.979 0 .115-.488.968-1.084 1.894l-1.084 1.685-.455-.706c-.25-.389-1.084-1.292-1.852-2.007l-1.396-1.3.56-.522c.991-.923.616-2.766-.916-4.503l-.772-.875 1.062-.203c1.713-.328 7.081-.008 9.368.559 6.122 1.515 10.48 5.095 13.214 10.854 1.061 2.233 1.595 4.671 1.6 7.31l.004 2.021 1.404-.116c2.9-.24 6.434 1.15 9.032 3.556 1.432 1.326 2.844 3.448 2.514 3.778-.088.088-7.229.222-15.867.297l-15.707.136zm60.632-184.11c-.271-.07-.957-.506-1.523-.97-.566-.464-1.081-.791-1.145-.728-.063.063-1.063-.838-2.221-2.002-1.159-1.165-1.968-2.118-1.8-2.118.416 0 .385-.72-.069-1.59-.205-.395-.373-.767-.373-.828 0-.061.646.456 1.437 1.15 1.893 1.66 4.966 3.536 6.063 3.699.48.071 1.015.307 1.187.522.474.596.389 2.151-.145 2.634-.47.426-.573.443-1.41.23zm-101.51-56.39c-4.95-4.999-9.217-9.492-9.483-9.987l-.483-.9 1.316-4.332c2.1-6.914 2.298-7.326 3.224-6.668.258.184 4.172 4.084 8.698 8.666 7.141 7.23 8.244 8.45 8.353 9.223l.125.891 1.033-1.035c1.12-1.123 1.926-1.314 2.333-.552.44.82.3 1.611-.894 5.06-1.952 5.64-3.638 8.694-4.81 8.713-.227.004-4.462-4.082-9.412-9.08zm6.49-16.919-9.01-9.001 1.635-1.478c.9-.812 3.548-3.3 5.885-5.53 2.337-2.23 4.683-4.345 5.212-4.7l.961-.648 1.164.61c.769.403 3.751 3.2 8.798 8.247 8.219 8.22 9.09 9.19 8.838 9.845-.088.231-.794.851-1.567 1.378-.773.527-3.15 2.56-5.281 4.518-4.37 4.013-6.092 5.394-7 5.611-.557.134-1.603-.828-9.635-8.852z"/><path fill="#e03667" d="M130.75 390.49c-1.994-1.225-3-2.593-3-4.081 0-.746.502-1.656.913-1.656.07 0 .608.394 1.196.875 1.397 1.145 1.96 1.121 2.86-.121l.722-.996.915.621c1.091.74 1.077.738 1.222.184.063-.24.127.22.143 1.025.035 1.752-.468 2.944-1.608 3.813-1.159.885-2.287.997-3.363.336zm167.31-13.876c-.805-.564-.692-1.203.295-1.674.468-.223 1.213-.856 1.655-1.407.788-.98.818-.993 1.427-.594.55.36.607.538.494 1.54-.23 2.034-2.347 3.202-3.871 2.135zm-2.896-17.961c-.19-1.626-1.287-5.048-2.485-7.756-.481-1.09-.825-2.112-.764-2.272.081-.21 2.766-.338 9.697-.46 10.203-.178 21.96.027 21.74.38-.375.609-5.904 3.782-8.796 5.049-3.694 1.618-10.578 4.08-14.703 5.26-2.215.632-4.14 1.15-4.278 1.15-.139 0-.323-.608-.41-1.35zm-207.22-28.709c-.057-.172.35-.518.917-.78.561-.258.876-.523.7-.589-.177-.065-.599.063-.938.285-.475.312-.617.328-.617.074 0-.525.544-.93 1.25-.93.515 0 .715.18.965.873.174.48.246.986.16 1.125-.225.365-2.312.315-2.436-.058zm161.99-51.055c-6.402-.814-10.212-1.933-15.336-4.505-4.632-2.325-7.261-4.279-11.598-8.62-3.492-3.497-5.57-6.236-7.474-9.85-1.11-2.11-1.212-2.801-.644-4.411.464-1.314.464-2.643 0-4.75-.454-2.064-.475-3.074-.062-2.943.172.055 1.156 1.701 2.187 3.66 2.25 4.274 3.537 6.042 6.998 9.625 4.591 4.752 7.733 7.1 12.604 9.419 5.069 2.412 8.67 3.387 15.273 4.132 7.666.865 14.015-.291 20.93-3.814 4.034-2.054 6.661-4.043 10.833-8.203 5.755-5.739 7.94-9.453 11.1-18.877l1.888-5.625 1.586.046c.873.025 1.65.108 1.726.184.232.233-.407 6.117-.94 8.645-1.281 6.085-4.016 12.427-7.438 17.25-3.112 4.387-9.547 10.335-13.736 12.696-4.508 2.542-10.412 4.76-15.169 5.698-2.782.548-9.337.673-12.728.242zm166.1-6.77c-.588-.67-.775-1.122-.775-1.875 0-1.056.42-1.315 1-.616.205.247.764.375 1.642.375 1.044 0 1.466.124 1.954.577.549.508.587.65.32 1.187-.255.513-.513.623-1.61.687-.719.041-1.306.182-1.306.312 0 .466-.461.223-1.225-.647zm-59.624-14.166c-.069-.453-.188-2.681-.266-4.95-.207-6.041-.902-10.665-2.294-15.248-.858-2.827-1.633-4.308-3.247-6.209-.74-.87-1.345-1.742-1.345-1.937 0-.196-.14-.373-.312-.395-.75-.094 3.426-.401 5.848-.43l2.66-.03.374.937c.518 1.3 1.817 7.153 2.29 10.312.542 3.638 1.14 11.237 1.14 14.497v2.717l-1.312.486c-1.187.44-1.606.574-2.986.957-.322.09-.454-.081-.55-.707zM97.98 234.69c-1.736-1.486-2.408-3.211-1.576-4.043.534-.535.785-.498 1.668.245 1.13.951 2.14.771 2.873-.513.314-.55.524-1.197.467-1.437-.152-.637.344-.536 1.148.234.604.579.7.864.7 2.062-.001 1.792-.59 2.768-2.093 3.475-1.466.69-2.362.683-3.187-.023zm218.37-20.128c-.157-.1-.41-.647-.563-1.213-.415-1.544-1.147-2.345-2.142-2.345-1.07 0-3.611.782-6.741 2.074-1.951.806-2.509.95-2.601.673-.19-.567-4.212-8.53-4.839-9.579-.502-.84-.525-.983-.182-1.174 1.064-.596 19.466-15.054 22.333-17.547l1.228-1.068 4.522 4.729c2.487 2.6 7.214 7.47 10.505 10.82 5.895 6 5.976 6.098 5.5 6.564-.763.748-8.266 3.207-20.201 6.622-5.814 1.663-6.313 1.769-6.82 1.444zm-116.46-2.696c-21.875-8.938-34.237-13.764-36.378-14.2-.807-.165-1.53-.363-1.608-.44-.146-.147 13.714-.472 20.094-.472 4.24 0 4.335-.038 7.316-2.95 1.248-1.219 1.756-1.57 2-1.38.18.14.96.764 1.736 1.387.775.623 2.97 2.234 4.875 3.581a276.436 276.436 0 0 1 5.34 3.864 94.193 94.193 0 0 0 3.875 2.74c1.1.73 2.093 1.41 2.207 1.51.113.102-.215 1.015-.73 2.03-.514 1.013-1.35 2.855-1.857 4.093s-1.08 2.28-1.272 2.316c-.191.037-2.71-.899-5.598-2.079zm154.73-7.425c-.905-1.134-1.707-2.207-1.78-2.385-.08-.189.935-1.325 2.455-2.75 1.424-1.335 4.093-3.861 5.931-5.614s3.442-3.123 3.566-3.047c.123.076.224 1.467.224 3.09v2.954l-1.159.324c-.673.188-1.51.676-1.998 1.164-1.24 1.24-3.256 4.187-4.37 6.39-.538 1.065-1.034 1.937-1.1 1.937-.068 0-.863-.929-1.769-2.063zm-16.4-15.504c-4.22-4.432-7.925-8.384-8.234-8.782l-.562-.722 1.234.177c3.417.491 5 1.433 9.43 5.61 1.62 1.53 3.308 2.965 3.75 3.19.442.227 1.199.722 1.682 1.102l.88.69 1.62-1.887c4.263-4.963 8.455-8.893 10.72-10.048.957-.488 4.909-1.214 5.173-.95.305.305-.233 1.277-1.468 2.649-2.214 2.46-16.256 17.038-16.408 17.034-.08-.002-3.598-3.63-7.817-8.063zm-163.5-39.44c-4.497-4.612-6.805-7.155-6.753-7.438.286-1.536.383-1.806.643-1.806.534 0 3.814 2.83 8.474 7.313 2.538 2.44 4.736 4.437 4.885 4.437s2.881-2.543 6.07-5.651c3.85-3.751 6.143-5.8 6.823-6.095 1.003-.435 1.038-.433 1.588.07.31.282.562.623.562.757 0 .28-15.004 15.42-15.28 15.42-.099 0-3.255-3.154-7.012-7.008zm149.77-2.586c-.493-.176-1.15-.498-1.462-.717-.692-.484-1.874-2.936-1.565-3.245.121-.121.169-.76.105-1.418-.102-1.067-.017-1.334.769-2.426.851-1.182 2.03-2.102 2.693-2.102.175 0 1.252.453 2.395 1.006 2.246 1.087 2.685 1.6 2.988 3.492.18 1.128.188 1.13 2.024.607l.553-.158-.42 1.089c-.482 1.244-.656 1.408-2.62 2.467-.787.424-1.421.85-1.407.947.1.694-.113.8-1.596.79-.86-.007-1.965-.156-2.457-.332zm32.158-9.299c-1.314-1.576-2.389-3.017-2.389-3.203s.44-.643.98-1.016c.538-.374 1.678-1.407 2.532-2.297 1.985-2.067 2.299-2.029 4.733.578 2.188 2.344 2.347 2.831 1.219 3.754-1.367 1.119-2.494 2.366-3.258 3.61-.395.641-.879 1.228-1.074 1.303-.232.09-1.18-.854-2.743-2.729zm-60.838-1.602-1.076-.972.95-1.07c2.373-2.67 6.09-6.162 7.351-6.905 1.416-.835 3.418-1.614 4.975-1.938.807-.167.563.137-3.129 3.91-2.201 2.252-4.78 4.965-5.73 6.03-.949 1.066-1.847 1.934-1.996 1.928-.149-.006-.754-.448-1.345-.983zm-146.08-2.447c-1.524-3.76-5.77-8.577-10.01-11.359-2.296-1.507-3.965-2.862-3.965-3.22 0-.278 1.348-.98 1.88-.98.223 0 .56.153.747.34.188.188 1.159.422 2.158.52s2.152.353 2.561.564c.515.266 1.114.34 1.949.242 1.203-.143 1.448-.01.93.508-.198.199.136.552 1.218 1.287.82.557 2.272 1.86 3.225 2.894l1.734 1.882-.337 2.194c-.186 1.206-.501 2.892-.701 3.745s-.364 1.775-.364 2.048c0 1.023-.463.723-1.026-.665zM272.68 77.6c-1.126-.61-1.672-1.172-1.667-1.716.006-.85.423-1.238 1.366-1.271.505-.018 1.24-.284 1.678-.608l.78-.576.704.849c.492.593.706 1.132.71 1.79.007.797-.117 1.017-.805 1.437-.964.587-1.805.617-2.767.095zm-38.536-4.685c-.571-.417-.306-.913.487-.913.326 0 .742-.15.925-.333.183-.183.472-.286.643-.229.192.064.31-.136.31-.528 0-.826.487-1.107.913-.526.563.771.424 2.001-.28 2.462-.749.491-2.369.527-2.998.067z"/><path fill="#3656c2" d="M306.08 182.9c.091-.672.175-2.81.185-4.75l.018-3.528 1.294-1.099c.712-.604 2.854-2.516 4.76-4.25 3.941-3.584 6.683-5.71 8.158-6.322l1.015-.422.656.99c.843 1.274 1.045 3.089.468 4.205-.795 1.536-12.67 13.255-16.241 16.027-.462.358-.473.326-.313-.85zm-93.511-52.226c1.922-2.518 4.926-11.432 4.927-14.62 0-.88.1-1.107.567-1.284.84-.32 2.625-1.798 6.808-5.639 2.062-1.893 4.256-3.78 4.875-4.193.619-.413 1.374-1.042 1.678-1.4l.552-.649.41.982c.405.968.4 1.004-.389 2.741-.44.969-1.692 3.842-2.785 6.386-2.594 6.042-2.579 6.013-4.127 7.724-2.158 2.385-10.341 9.203-13.068 10.888-.17.105.08-.317.552-.936z"/><path fill="#9e2687" d="M227.81 396.04c-1.106-1.793-1.295-2.361-.707-2.136.222.085.87-.516 1.772-1.647 2-2.506 4.278-4.059 7.234-4.93.698-.206 1.395-.477 1.55-.603.353-.288 1.094-.02 1.094.396 0 .172-.597.71-1.326 1.193-3.477 2.308-5.72 4.705-7.46 7.968-.43.81-.855 1.473-.942 1.473-.086 0-.633-.771-1.215-1.714zm132.25-4.91c-.546-.393-1.311-1.61-1.311-2.083 0-.128.513-.174 1.14-.103 1.346.151 3.584-.773 3.6-1.488.019-.805.47-.703.76.17.355 1.078.019 2.288-.867 3.12-.79.742-2.545.946-3.322.385zm47.536-92.432c-.367-.725-1.59-2.249-2.747-3.424-1.147-1.165-2.04-2.165-1.983-2.22.056-.057.447.07.868.28.744.37.77.364.921-.24.114-.453.266-.574.562-.448.224.094.662.227.973.294.312.068.628.222.703.343.486.788 3.106-1.153 3.106-2.301 0-.554 1.216-3.479 1.446-3.479.07 0 .666.504 1.324 1.12.659.616 1.823 1.427 2.589 1.802.765.376 1.391.767 1.391.87 0 .104-.816.794-1.812 1.533-2.105 1.56-4.66 4.217-5.733 5.96-.411.668-.792 1.216-.847 1.216-.055 0-.397-.588-.761-1.306zm-197.97-99.852c-1.375-1.18-4.23-3.511-6.343-5.181a2273.24 2273.24 0 0 1-4.207-3.329c-.309-.248-.174-.571.885-2.125 2.492-3.654 9.933-10.098 15.665-13.565 2.918-1.765 9.2-4.99 11.441-5.875 2.68-1.057 15.17-4.881 17.31-5.3 1.306-.256 4.156-.338 11.25-.323 10.876.022 12.43.198 19.338 2.19 4.504 1.3 5.186 1.705 5.103 3.036-.089 1.431.454 2.16 3.748 5.032 8.771 7.646 17.685 16.635 17.685 17.833 0 .221-.898 1.412-1.995 2.646-1.098 1.234-2.138 2.552-2.311 2.93-.327.71-.565.85-.801.467-.075-.122-.649-.298-1.274-.392-2.237-.335-4.64-1.73-5.844-3.392-.661-.913-.974-1.75-1.893-5.066-.22-.796-.494-1.389-.609-1.318-.114.07-.282.693-.374 1.383-.091.69-.223 1.256-.293 1.256-.259 0-2.078-1.013-5.303-2.954-7.603-4.576-16.469-7.085-25.178-7.127-6.604-.032-10.95.668-17.854 2.876-8.699 2.78-16.213 7.941-22.85 15.694-1.242 1.45-2.38 2.66-2.527 2.692-.147.03-1.393-.91-2.768-2.089zm148.32-55.443c-1.75-2.869-3.398-4.706-5.767-6.43-.99-.72-2.052-1.532-2.359-1.804-.52-.461-.529-.514-.125-.821.722-.549 4.558-.396 4.558.181 0 .12 1.074 1.507 2.388 3.083 1.563 1.875 2.51 2.818 2.743 2.73.196-.076.679-.663 1.074-1.305.765-1.242 1.891-2.49 3.258-3.609.658-.538.806-.813.69-1.278-.238-.944-3.55-4.334-4.422-4.526l-.753-.165 1.073-1.062c1.385-1.369 1.698-1.786 1.698-2.258 0-.703.374-.401 1.187.958 1.071 1.79 3.298 3.806 5.559 5.031 1.015.55 1.887 1.133 1.94 1.296.052.163-.953 1.13-2.233 2.152-3.115 2.484-5.518 5.066-7.316 7.865-.817 1.272-1.548 2.311-1.624 2.31-.075 0-.782-1.058-1.57-2.348zm-206.5-6.587c-.899-1.03-.972-1.472-.561-3.368.217-1 .566-2.945.777-4.32.388-2.535.834-3.606 2.065-4.963.786-.866 2.95-2.366 4.648-3.223 1.765-.89 6.133-1.939 8.076-1.939h1.627l-.474.523c-.26.288-1.878 1.497-3.596 2.688-5.573 3.863-7.803 6.445-9.983 11.564-.924 2.167-1.67 3.475-1.982 3.475-.119 0-.387-.197-.597-.438zm172.86-52.202c-.306-.214-.556-.557-.556-.762 0-.454 2.363-1.593 3.313-1.597.593-.002.687.098.687.726 0 .506-.234.925-.769 1.375-.872.734-1.86.829-2.675.258z"/><path d="M330.368 111.06c1.915 2.475 2.712 6.182 2.712 6.182l3.221-5.996 4.622-4.235z" style="fill:#abd4fc;fill-opacity:1"/></svg>