<?xml version="1.0" encoding="UTF-8"?>
<svg width="512" height="512" version="1.1" xml:space="preserve" xmlns="http://www.w3.org/2000/svg"><path d="M256.58 410.06c-.415-.263-1.111-3.418-1.847-8.367-4.135-27.81-11.592-35.65-38.475-40.452-7.786-1.39-7.762-1.382-7.762-3.034 0-1.603.91-1.941 7.962-2.96 26.24-3.793 34.49-12.407 38.314-40 1.106-7.976 3.577-11.108 4.434-5.618.14.89.733 4.76 1.32 8.6 3.756 24.597 12.274 33.186 36.47 36.777 8.968 1.33 9.616 1.563 9.408 3.37-.18 1.57.277 1.429-10.908 3.392-24.252 4.256-32.516 13.805-35.714 41.265-.789 6.776-1.418 8.157-3.201 7.027zm2.807-37.877c2.815-5.957 8.349-11.022 14.144-12.947 2.227-.74 2.82-1.11 1.243-1.738-8.496-3.384-13.689-8.19-16.82-16.347-.54-1.403-.54-1.403-1.724 1.497-1.977 4.835-5.791 9.4-9.985 11.947-1.89 1.148-2.955 1.627-6.5 2.926-1.5.55-1.5.55 2.03 1.923 7.324 2.852 12.5 8.152 15.254 17.054.122.395.284.188.59-.5s1.101-2.404 1.768-3.814zm-41.159 23.839c-2.068-.838-2.972-3.188-2.142-5.569 1.248-3.58 6.146-3.294 7.446.435 1.131 3.244-2.144 6.415-5.304 5.134zm74.362-1.044c-.766-.714-1.094-1.607-1.094-2.98 0-5.205 6.98-5.595 7.816-.437.6 3.696-3.944 6.006-6.722 3.417zm-94.48-12.815c-.35-.14-.968-.899-1.375-1.685-2.204-4.262 2.513-8.366 6.084-5.294 3.603 3.1-.23 8.781-4.709 6.98zm113.93-.54c-1.869-1.528-1.933-4.31-.14-6.102 1.98-1.98 3.719-1.981 5.697-.003 3.58 3.58-1.636 9.31-5.557 6.105zm-135.45-24.5c-.246-.481-.931-2.491-1.522-4.467-1.743-5.83-5.11-9.317-10.315-10.68-6.379-1.672-6.643-3.266-.859-5.192 6.84-2.278 9.6-5.088 11.67-11.884 1.812-5.948 3.135-5.843 5.494.437 2.312 6.154 5.108 8.966 10.797 10.861 6.452 2.149 6.755 3.424 1.235 5.202-6.28 2.022-9.507 4.858-11.381 10.002-2.42 6.638-3.837 8.223-5.119 5.721zm3-13.101c.46-.808 1.992-2.3 3.405-3.316 2.796-1.89 2.182-2.196-.141-3.904-1.045-.766-2.395-2.157-3-3.092-1.41-2.178-1.412-2.178-3.284.835-.989 1.59-1.748 2.37-3.075 3.11-1.805 1.004-1.888.978.53 2.92 1.112.894 2.48 2.367 3.04 3.274 1.247 2.016 1.467 2.031 2.524.173zm154.65 9.101c-2.47-6.446-5.265-9.366-10.606-11.083-6.76-2.174-6.755-3.221.028-5.772 6.066-2.28 8-4.261 10.277-10.52 2.51-6.902 3.903-7.2 5.817-1.25 2.238 6.956 8.037 12.375 13.391 12.516 3.907.103 2.73 3.013-1.87 4.624-6.444 2.258-9.099 5.025-11.322 11.806-2.086 6.357-3.18 6.296-5.716-.32zm7.234-12.208c2.602-2.276 2.602-2.276.891-3.285-.941-.556-2.458-2.05-3.37-3.32-2.008-2.797-1.962-2.792-3.383-.304-.629 1.1-2.035 2.591-3.125 3.313-1.907 1.262-2.923 1.545-1.273 2.322 1.225.577 4.51 3.564 5.328 5.148.762 1.472.55 1.33 1.44-.134.49-.805 2.061-2.488 3.492-3.74zm-126.77-10.999c-.198-.32-.466-2.233-.595-4.25-.236-3.668-.236-3.668-3.045-3.674-4.03-.01-5.06-.379-5.06-1.814 0-1.52 1.599-2.18 5.284-2.18 2.717 0 2.717 0 2.717-3.282 0-3.696.583-5.218 2-5.218s2 1.522 2 5.218c0 3.282 0 3.282 2.889 3.282 2.75 0 5.11.921 5.11 1.993 0 1.29-1.71 2.007-4.785 2.007-3.214 0-3.214 0-3.214 3.283 0 4.419-1.839 7-3.301 4.635zm81.634.25c-.183-.184-.333-1.394-.333-2.688 0-5.173-.212-5.48-3.777-5.48-2.199 0-3.39-.237-3.938-.785-1.905-1.905-.173-3.215 4.25-3.215 3.465 0 3.465 0 3.465-3.982 0-3.423.135-4.055.965-4.499 1.742-.932 2.535.558 2.535 4.767 0 3.714 0 3.714 3.033 3.714 3.457 0 4.967.608 4.967 2s-1.51 2-4.967 2c-3.033 0-3.033 0-3.033 3.283 0 4.325-1.466 6.585-3.167 4.884zm-168.71-1.293c-1.528-1.637-1.845-3.497-.906-5.313 1.948-3.767 7.803-2.333 7.766 1.9-.034 3.847-4.42 6.028-6.86 3.413zm254.83.485c-4.253-3.266-.742-9.472 4.27-7.549 1.28.49 2.38 3.067 2.017 4.72-.605 2.752-4.25 4.392-6.287 2.829zm-233.58-12.9c-1.436-.836-1.346-76.172.092-76.941 2.68-1.435 10.916-.621 13.028 1.287 1.998 1.805 1.998 1.805 3.699.311 8.601-7.552 22.475-1.357 26.057 11.634 7.006 25.413-8.655 50.186-26.689 42.217-1.204-.532-2.272-.967-2.375-.967s-.186 4.942-.186 10.982c0 10.346-.056 11.012-.968 11.5-1.243.666-11.508.648-12.658-.022zm23.615-34.084c9.54-4.875 6.188-33.955-3.699-32.1-5.25.984-6.003 3.026-6.205 16.814-.232 15.795 2.041 19.304 9.904 15.286zm-57.49 16.33c-8.652-1.425-14.643-4.588-20.625-10.887-3.084-3.248-3.15-3.032 2.393-7.89 5.926-5.193 5.115-5.081 8.776-1.21 8.67 9.167 22.022 8.038 22.849-1.932.47-5.67-2.209-8.649-11.745-13.065-16.912-7.832-21.511-12.01-23.447-21.296-4.46-21.386 22.141-35.994 41.864-22.99 7.808 5.147 7.802 4.897.283 11.66-4.402 3.96-4.402 3.96-6.75 1.462-8.104-8.622-22.64-4.254-20.93 6.289.661 4.07 3.973 7.042 11.832 10.616 15.943 7.25 20.359 10.989 22.767 19.27 4.66 16.03-10.531 32.727-27.267 29.97zm284.6-1.983c-20.093-5.408-26.963-32.159-12.962-50.472 11.645-15.231 34.606-11.248 34.597 6.002-.004 7.305-1.99 10.013-15.146 20.655-8.201 6.635-8.564 7.188-6.08 9.279 2.876 2.419 10.247 2.491 14.916.146 4.22-2.12 3.876-2.488 5.984 6.418 1.105 4.664 1.055 4.913-1.189 5.978-5.373 2.55-14.643 3.468-20.12 1.994zm-.267-32.008c8.011-7.127 10.114-11.229 7.335-14.3-4.39-4.85-12.114 5.445-12.164 16.211-.012 2.445-.11 2.484 4.83-1.91zm-190.59 31.35c-22.61-5.915-11.85-36.235 12.193-34.354 3.694.289 3.694.289 3.435-2.938-.59-7.338-6.053-10.608-13.344-7.986-1.382.497-2.602.805-2.713.684-1.855-2.024-5.352-10.711-4.549-11.298 8.235-6.021 23.797-4.41 30.737 3.184 4.712 5.155 4.717 5.186 4.89 30.095.172 24.735.696 22.513-5.326 22.594-5.06.068-6.024-.376-7.975-3.67-1.002-1.691-1.292-1.702-2.995-.108-3.37 3.155-10.052 4.923-14.353 3.798zm11.08-13.103c4.542-2.199 7.447-13.461 3.473-13.461-4.66 0-11.441 3.801-12.27 6.877-1.553 5.765 3.177 9.305 8.797 6.584zm28.295 12.995c-1.496-.564-1.824-56.081-.334-56.653 5.883-2.257 13.817.112 14.114 4.215.219 3.022.219 3.022 2.532.67 8.577-8.72 26.68-4.91 21.93 4.614-.945 1.896-2.12 4.516-2.61 5.823-1.068 2.842-1.224 2.863-4.49.613-6.417-4.419-14.016-1.647-16.481 6.012-.659 2.045-.826 5.381-.92 18.334-.064 8.708-.228 15.935-.365 16.058-.501.45-12.282.726-13.375.314zm44.375.16c-.412-.146-.915-.514-1.117-.816-.672-1.007-.46-87.023.217-87.7.682-.682 12.731-.85 13.766-.193.475.3.623 6.1.643 25.158.015 13.622.15 25.536.3 26.476.275 1.708.275 1.708 11.132-9.167l10.857-10.875h8.6c4.731 0 8.58.17 8.553.375-.027.207-5.652 5.769-12.5 12.36-14.745 14.193-14.032 10.951-4.622 21.012 9.975 10.665 12.71 11.892 20.303 9.111 1.86-.68 3.472-1.092 3.583-.913.525.85 2.34 9.655 2.197 10.662-.357 2.515-8.779 5.198-15.028 4.787-7.193-.473-10.86-3.27-25.256-19.269-4.27-4.744-7.831-8.625-7.916-8.625-.085 0-.173 6.119-.197 13.597-.023 7.478-.093 13.635-.154 13.682-.328.25-12.728.563-13.362.338zm67.876.026c-1.981-.3-1.914 1.32-1.763-42.392l.137-40 6.5-.125c3.575-.069 6.838.092 7.25.357.735.472 1.228 81.01.5 81.658-.364.324-11.007.749-12.624.503zm-143.88-79.63c-.52-.33-.826-1.662-1-4.368-.25-3.894-.25-3.894-3.48-4.046-6.725-.316-6.311-4.098.448-4.098 3.032 0 3.032 0 3.04-3.875.009-4.411.363-5.283 2.049-5.044 1.14.161 1.2.36 1.338 4.544.144 4.375.144 4.375 3.158 4.375 3.439 0 4.947.61 4.947 2 0 1.392-1.51 2-4.967 2-3.033 0-3.033 0-3.033 3.9 0 4.54-.665 5.768-2.5 4.611zm40.027-4.73c-.327-.395-1.016-3.623-1.53-7.173-4.917-33.997-15.812-45.935-46.886-51.373-8.852-1.55-8.942-1.574-9.313-2.541-.685-1.786.555-2.535 6.058-3.654 35.342-7.192 45.055-17.705 49.928-54.041 1.764-13.152 3.424-12.621 5.47 1.75 4.984 35.016 15.136 45.707 49.746 52.39 9.733 1.879 8.793 4.058-2.537 5.88-15.95 2.567-24.341 6.078-32.154 13.454-8.816 8.323-12.806 18.074-15.32 37.439-1.044 8.052-1.83 9.837-3.462 7.87zm5.2-45.173c3.892-7.406 10.075-12.958 17.403-15.628 4.283-1.56 4.324-1.683 1.025-3.01-10.955-4.408-18.01-12.362-21.68-24.441l-1.103-3.632-1.343 4.175c-2.662 8.279-7.353 15.192-12.892 19.004-2.443 1.681-9.719 5.422-10.545 5.422-1.735 0-.652 1.057 2.002 1.953 10.485 3.54 19.008 13.051 21.937 24.476.661 2.58.661 2.58 2.012-1.124.743-2.037 2.176-5.276 3.185-7.196zm-134.27 30.929c-3.525-3.526 1.172-9.9 5.083-6.898 3.281 2.52 1.68 8.36-2.294 8.36-.8 0-1.907-.581-2.788-1.462zm254.2.264c-2.96-2.546-1.05-7.803 2.837-7.803 4.24 0 5.76 6.306 1.99 8.256-2.019 1.043-3.218.93-4.826-.453zm-205.33-3.178c-.381-.756-1.07-2.523-1.528-3.927-1.948-5.964-5.487-9.466-11.321-11.203-5.932-1.767-5.916-3.405.055-5.464 7.197-2.482 8.964-4.239 11.252-11.19 2.386-7.25 4.053-7.436 6.057-.676 1.888 6.37 4.478 9.09 10.912 11.465 6.295 2.323 6.344 3.454.244 5.615-6.13 2.172-8.586 4.729-11.167 11.63-2.085 5.572-3.138 6.449-4.502 3.75zm2.17-11.677c.213-.216 1.377-1.899 3.06-3.545 3.058-2.993 3.058-2.993 1.178-4.543-1.034-.853-2.508-2.54-3.274-3.748-1.394-2.197-1.382-2.191-2.145-.744-.92 1.743-4.068 4.523-5.431 5.418-1.12.735-1.108.81.904 2.18.982.669 2.349 2.267 3.27 3.375 1.833 2.202 1.8 2.255 2.438 1.607zm157.35 11.958c-.39-.635-1.234-2.618-1.873-4.405-2.313-6.466-4.89-9.075-10.888-11.03-6.211-2.024-6.09-3.197.589-5.708 6.719-2.526 8.048-4.107 11.148-13.256 1.626-4.798 3.41-4.072 5.36 2.18 2.03 6.514 4.743 9.175 11.766 11.545 5.566 1.877 5.33 3.27-.902 5.324-5.465 1.801-8.706 4.745-10.319 9.374-2.537 7.278-3.417 8.355-4.88 5.976zm2.687-13.136c.884-1.224 2.497-2.822 3.59-3.546 1.989-1.316 1.989-1.316-.298-3.395-1.258-1.143-2.848-2.936-3.533-3.985-1.246-1.906-1.228-1.924-2.25.062-.951 1.849-2.79 3.496-4.856 4.902-1.023.697-1.058.71 1.617 2.862 1.476 1.187 2.62 3.117 3.186 3.817 1.364 1.69.677 1.872 2.545-.717zm-140.94-52.784c-2.98-2.776-1.116-7.486 2.962-7.486 1.34 0 3.938 2.636 3.938 3.994 0 3.712-4.318 5.897-6.9 3.492zm113.94-.303c-3.131-3.982 1.656-9.285 5.59-6.192 1.948 1.533 1.979 4.96.057 6.473-1.888 1.485-4.354 1.362-5.647-.281zm-95-24c-1.803-2.294-1.32-5.252 1.061-6.483 3.014-1.558 5.903.314 5.903 3.824 0 3.706-4.722 5.509-6.964 2.659zm76.051.16c-1.91-2.035-1.4-5.397 1.01-6.643 3.034-1.569 5.903.315 5.903 3.875 0 3.483-4.535 5.299-6.913 2.768z"/></svg>
