<svg xmlns="http://www.w3.org/2000/svg" width="32" height="32"><path fill="#fff" d="M0 0h32.005v32.005H0z"/><path d="M27.68 28.545h-.865v-1.73h.865zm-4.325 0H19.03v-.865h1.73v-1.73h.865v.865h.865v.865h.865zm-6.055 0h-1.73v-1.73h1.73zm-2.595 0h-.865v-.865h.865zm-1.73 0h-.865v-.865h.865zm-1.73 0h-.865v-3.46h3.46v-.865h.865v1.73h-.865v1.73h-.865v-1.73h-1.73zm-1.73 0H3.46V22.49h6.055zm16.435-.865h-.865v-.865h.865zm-1.73 0h-.865v-2.595h-.865v.865h-.865v-.865h-.865v-1.73h-1.73v-.865h-.865v1.73h.865v1.73h.865v.865H17.3v-.865h-1.73v-1.73h.865v.865h.865v-3.46h.865v-.865H17.3v-.865h-1.73v-.865h.865V17.3h.865v1.73h.865v.865h1.73v2.595h.865v-1.73h1.73v-1.73h.865v-.865h.865v.865h.865v1.73h.865v-1.73h-.865v-.865h-.865V17.3h-2.595v.865h-1.73v.865h-.865V17.3h.865v-1.73h-.865v-.865h1.73v.865h.865v.865h.865v-1.73h.865v1.73h1.73v.865h.865v.865h.865v-1.73h-.865v-1.73h-.865v-.865h1.73v.865h1.73v1.73h-.865v2.595h-.865v2.595h1.73v.865h-.865v.865h.865v3.46h-.865v-1.73h-1.73v-.865h.865v-1.73h-.865v1.73h-.865v.865h.865v.865h-1.73zm-15.57 0v-4.325H4.325v4.325zm18.165-.865h-.865v-.865h.865zm-11.245 0h-.865v-.865h.865zm-7.785 0H5.19V24.22h2.595zm12.975-.865h-.865v-.865h.865zm3.46-1.73v-2.595h-2.595v2.595zm-11.245 0h-1.73v-1.73h-.865v-.865h.865v-.865h-.865v-.865h2.595v.865h.865v-.865h-.865v-.865h.865v-.865h.865V17.3h.865v1.73h-.865v1.73h.865v2.595h-2.595v-.865h.865v-.865h-1.73v1.73h.865zm10.38-.865h-.865v-.865h.865zm-12.975-1.73H8.65v-.865h1.73zm-4.325 0h-1.73v-.865h1.73zm1.73-.865h-1.73v-2.595h.865v.865h2.595v-.865h2.595v-1.73h.865v.865h.865v.865h-.865v.865H10.38v.865H7.785zm13.84-.865h-.865v-.865h.865zm-17.3 0H3.46v-.865h.865zm5.19-1.73H8.65V17.3h.865zm-1.73 0H6.92V17.3h-.865v-.865h.865v-.865H4.325v-.865h1.73v-.865h3.46v.865h-1.73v.865h1.73v.865H8.65v.865h-.865zm-1.73 0H5.19V17.3h.865zm12.11-.865H17.3v-1.73h.865zm-3.46 0h-.865v-1.73h.865v-1.73h-.865v1.73h-1.73v.865h-.865v-.865h-.865v-1.73h-.865v-.865H8.65v-.865h1.73v.865h.865v.865h.865v.865h.865v-1.73h1.73v-1.73h.865v.865h.865v.865h.865v.865h-.865v.865h.865v.865h-.865v.865h-1.73zm-4.325 0h-.865v-.865h.865zm-5.19 0H3.46v-.865h1.73zm13.84-2.595h-.865v-.865h.865zm-14.705 0H3.46v-.865h.865zm24.22-.865h-.865v-.865h.865zm-3.46 0h-.865v-.865h.865zm-1.73 0h-1.73v-1.73h.865v.865h.865zm-3.46 0h-.865v-.865h.865zm-13.84 0h-1.73v-1.73H3.46v-1.73h3.46v1.73h-.865zm21.625-.865h-1.73v-.865h1.73zm-3.46 0h-.865v-.865h-.865v-.865h1.73v-.865h2.595v.865h-1.73v.865h-.865zm-6.055 0H17.3v-1.73h.865v-1.73h.865v-1.73h.865V6.92h-1.73v.865h-1.73V6.92h-1.73v-.865h-.865v1.73h-1.73v.865h-.865v-.865h-.865V5.19h.865v.865h.865v.865h.865V5.19h2.595v-.865h.865v1.73h.865V5.19h.865v.865h.865v-1.73H17.3V3.46h4.325v.865h-1.73v1.73h.865V8.65h-.865v2.595h1.73v.865h-3.46zm10.38-.865h-.865v-1.73h.865zm-16.435 0h-1.73v-1.73h.865v.865h.865zm-3.46 0h-.865v-.865h.865zm13.84-.865h-.865v-.865h.865zm-6.055 0h-.865V8.65h.865v.865h.865v.865h-.865zm-6.92 0H8.65v-.865h.865zm12.11-.865h-.865V8.65h.865zm-7.785 0h-.865v-.865h.865zm-1.73 0h-.865v-.865h.865zm16.435-.865H22.49V3.46h6.055zm-10.38 0H17.3V8.65h.865zm-3.46 0h-.865v-1.73h.865zm-1.73 0h-.865V8.65h.865zm-1.73 0h-.865V8.65h.865zm-1.73 0H3.46V3.46h6.055zM27.68 8.65V4.325h-4.325V8.65zm-19.03 0V4.325H4.325V8.65zm18.165-.865H24.22V5.19h2.595zm-19.03 0H5.19V5.19h2.595zm13.84-1.73h-.865V5.19h.865zm-9.515-1.73h-1.73V3.46h1.73z"/></svg>