<svg xmlns="http://www.w3.org/2000/svg" width="32" height="32"><path fill="#fff" d="M13 2v4.49a10 10 0 0 0-3.736 2.158L5.375 6.402l-3 5.196 3.89 2.246a9.077 9.077 0 0 0 0 4.312l-3.89 2.246 3 5.196 3.889-2.247A10 10 0 0 0 13 25.51V30h6v-4.49a10 10 0 0 0 3.736-2.159l3.889 2.247 3-5.196-3.89-2.246a9.465 9.465 0 0 0 .023-4.326l3.867-2.232-3-5.196-3.865 2.233A10 10 0 0 0 19 6.465V2h-6zm3 8a6 6 0 0 1 6 6 6 6 0 0 1-6 6 6 6 0 0 1-6-6 6 6 0 0 1 6-6z" color="#000" style="-inkscape-stroke:none;font-feature-settings:normal;font-variant-alternates:normal;font-variant-caps:normal;font-variant-east-asian:normal;font-variant-ligatures:normal;font-variant-numeric:normal;font-variant-position:normal;font-variation-settings:normal;inline-size:0;isolation:auto;mix-blend-mode:normal;shape-margin:0;shape-padding:0;text-decoration-color:#000;text-decoration-line:none;text-decoration-style:solid;text-indent:0;text-orientation:mixed;text-transform:none;white-space:normal"/></svg>